<?xml version="1.0" encoding="utf-8"?>
<!-- Generator: Adobe Illustrator 16.0.0, SVG Export Plug-In . SVG Version: 6.00 Build 0)  -->
<!DOCTYPE svg PUBLIC "-//W3C//DTD SVG 1.1//EN" "http://www.w3.org/Graphics/SVG/1.1/DTD/svg11.dtd">
<svg version="1.1" id="Layer_1" xmlns="http://www.w3.org/2000/svg" xmlns:xlink="http://www.w3.org/1999/xlink" x="0px" y="0px"
	 width="100px" height="100px" viewBox="0 0 100 100" enable-background="new 0 0 100 100" xml:space="preserve">
<path fill="#FFFFFF" d="M70.886,22.329c11.713,0,19.202,11.213,19.202,11.213s-11.427,6.132-11.427,19.452
	c0,15.812,14.356,20.413,14.356,20.413S81.686,100,68.964,100c-7.154,0-7.636-4.074-17.141-4.074
	c-8.257,0-11.044,4.074-17.333,4.074C22.487,100,6.982,74.076,6.982,52.994c0-21.897,15.697-30.665,25.541-30.665
	c8.644,0,12.243,5.03,19.205,5.03C57.585,27.359,62.193,22.329,70.886,22.329z M68.866,0c1.729,10.733-8.113,24.005-19.876,23.574
	C47.264,9.918,59.937,0.718,68.866,0z"/>
</svg>
