<?xml version="1.0" encoding="utf-8"?>
<!-- Generator: Adobe Illustrator 16.0.0, SVG Export Plug-In . SVG Version: 6.00 Build 0)  -->
<!DOCTYPE svg PUBLIC "-//W3C//DTD SVG 1.1//EN" "http://www.w3.org/Graphics/SVG/1.1/DTD/svg11.dtd">
<svg version="1.1" id="Layer_1" xmlns="http://www.w3.org/2000/svg" xmlns:xlink="http://www.w3.org/1999/xlink" x="0px" y="0px"
	 width="100px" height="100px" viewBox="0 0 100 100" enable-background="new 0 0 100 100" xml:space="preserve">
<g>
	<path fill="#FFFFFF" d="M9.501,0C9.402,0.333,9.343,0.707,9.343,1.133c0,4.663,0,48.652,0,48.652s0,47.539,0,49.638
		c0,0.207,0.028,0.394,0.059,0.577l50.262-50.262L9.501,0z"/>
	<path fill="#FFFFFF" d="M62.985,46.417l12.208-12.208L55.755,22.987c0,0-0.031-0.019-0.079-0.045L16.489,0.314L62.985,46.417z"/>
	<path fill="#FFFFFF" d="M17.2,98.844l1.856-1.072c10.338-5.97,30.609-17.674,35.577-20.542l0.226-0.13
		c0.575-0.334,0.896-0.519,0.896-0.519l19.581-11.305L63,53.043L17.2,98.844z"/>
	<path fill="#FFFFFF" d="M98.238,52.056c2.441-1.412,2.207-3.347,0.147-4.457C96.734,46.71,84.297,39.491,79.4,36.645L66.32,49.723
		l13.231,13.12c4.863-2.808,16.518-9.535,18.618-10.748L98.238,52.056z"/>
</g>
</svg>
