<?xml version="1.0" encoding="utf-8"?>
<!-- Generator: Adobe Illustrator 16.0.0, SVG Export Plug-In . SVG Version: 6.00 Build 0)  -->
<!DOCTYPE svg PUBLIC "-//W3C//DTD SVG 1.1//EN" "http://www.w3.org/Graphics/SVG/1.1/DTD/svg11.dtd">
<svg version="1.1" id="Layer_1" xmlns="http://www.w3.org/2000/svg" xmlns:xlink="http://www.w3.org/1999/xlink" x="0px" y="0px"
	 width="472px" height="77.019px" viewBox="0 0 472 77.019" enable-background="new 0 0 472 77.019" xml:space="preserve">
<g>
	<g>
		<g>
			<g>
				<path fill="#FFD253" d="M77.637,33.555c3.532-3.081,2.454-6.026-1.991-6.509c-6.03-0.646-23.226-2.68-23.226-2.68
					S45.849,9.544,43.011,3.157C41.12-1.126,37.99-0.97,36.213,3.132c-2.739,6.359-9.111,21.234-9.111,21.234
					s-17.46,2.086-23.008,2.68c-4.44,0.482-5.522,3.428-1.991,6.509c4.63,4.038,14.423,12.489,16.784,14.541
					c0,0-3.433,18.079-4.468,24.063c-0.752,4.406,1.788,6.252,5.723,3.698c5.139-3.336,16.661-11.339,19.286-13.041
					c0,0,14.47,9.916,19.297,13.041c3.933,2.554,6.472,0.708,5.707-3.698c-1.029-5.984-3.769-20.171-4.321-23.259
					C60.112,48.9,73.439,37.22,77.637,33.555z"/>
			</g>
		</g>
	</g>
	<g>
		<g>
			<g>
				<path fill="#FFD253" d="M175.701,33.555c3.532-3.081,2.453-6.026-1.991-6.509c-6.03-0.646-23.226-2.68-23.226-2.68
					s-6.573-14.822-9.409-21.209c-1.891-4.283-5.022-4.127-6.798-0.025c-2.739,6.359-9.112,21.234-9.112,21.234
					s-17.459,2.086-23.005,2.68c-4.442,0.482-5.523,3.428-1.993,6.509c4.632,4.038,14.422,12.489,16.784,14.541
					c0,0-3.432,18.079-4.466,24.063c-0.752,4.406,1.787,6.252,5.722,3.698c5.14-3.336,16.664-11.339,19.288-13.041
					c0,0,14.469,9.916,19.296,13.041c3.933,2.554,6.472,0.708,5.705-3.698c-1.028-5.984-3.767-20.171-4.318-23.259
					C158.177,48.9,171.504,37.22,175.701,33.555z"/>
			</g>
		</g>
	</g>
	<g>
		<g>
			<g>
				<path fill="#FFD253" d="M273.765,33.555c3.533-3.081,2.455-6.026-1.99-6.509c-6.031-0.646-23.225-2.68-23.225-2.68
					s-6.572-14.82-9.41-21.209c-1.891-4.281-5.021-4.127-6.797-0.025c-2.74,6.36-9.112,21.234-9.112,21.234
					s-17.459,2.086-23.007,2.68c-4.44,0.482-5.522,3.428-1.992,6.509c4.631,4.04,14.424,12.489,16.785,14.541
					c0,0-3.432,18.079-4.467,24.063c-0.752,4.406,1.787,6.252,5.724,3.698c5.139-3.333,16.661-11.337,19.286-13.041
					c0,0,14.469,9.916,19.297,13.041c3.932,2.554,6.472,0.708,5.705-3.698c-1.027-5.984-3.768-20.171-4.32-23.257
					C256.242,48.902,269.57,37.22,273.765,33.555z"/>
			</g>
		</g>
	</g>
	<g>
		<g>
			<g>
				<path fill="#FFD253" d="M371.831,33.555c3.532-3.081,2.454-6.026-1.991-6.509c-6.03-0.646-23.225-2.68-23.225-2.68
					s-6.574-14.822-9.41-21.209c-1.891-4.283-5.021-4.127-6.797-0.025c-2.74,6.359-9.111,21.234-9.111,21.234
					s-17.461,2.086-23.007,2.68c-4.441,0.482-5.522,3.428-1.993,6.509c4.632,4.038,14.424,12.489,16.785,14.541
					c0,0-3.434,18.079-4.467,24.063c-0.752,4.406,1.786,6.252,5.723,3.698c5.139-3.336,16.662-11.339,19.286-13.041
					c0,0,14.468,9.916,19.296,13.041c3.934,2.554,6.473,0.708,5.706-3.698c-1.028-5.984-3.766-20.171-4.319-23.259
					C354.306,48.9,367.634,37.22,371.831,33.555z"/>
			</g>
		</g>
	</g>
	<g>
		<g>
			<path fill="#FFD253" d="M469.894,33.555c3.533-3.081,2.453-6.026-1.991-6.509c-6.029-0.646-23.226-2.68-23.226-2.68
				s-6.572-14.822-9.408-21.209c-1.891-4.283-5.02-4.127-6.797-0.025c-2.74,6.359-9.111,21.234-9.111,21.234
				s-17.461,2.086-23.01,2.68c-4.438,0.482-5.521,3.428-1.99,6.509c4.632,4.038,14.424,12.489,16.783,14.541
				c0,0-3.43,18.079-4.465,24.063c-0.753,4.406,1.786,6.252,5.723,3.698c5.14-3.336,16.662-11.339,19.285-13.041
				c0,0,14.471,9.916,19.298,13.041c3.933,2.554,6.473,0.708,5.704-3.698c-1.026-5.984-3.766-20.171-4.318-23.259
				C452.371,48.9,465.699,37.22,469.894,33.555z"/>
		</g>
	</g>
</g>
</svg>
