<?xml version="1.0" encoding="utf-8"?>
<!-- Generator: Adobe Illustrator 16.0.0, SVG Export Plug-In . SVG Version: 6.00 Build 0)  -->
<!DOCTYPE svg PUBLIC "-//W3C//DTD SVG 1.1//EN" "http://www.w3.org/Graphics/SVG/1.1/DTD/svg11.dtd">
<svg version="1.1" id="Layer_1" xmlns="http://www.w3.org/2000/svg" xmlns:xlink="http://www.w3.org/1999/xlink" x="0px" y="0px"
	 width="509.121px" height="83.326px" viewBox="0 0 509.121 83.326" enable-background="new 0 0 509.121 83.326"
	 xml:space="preserve">
<g opacity="0.5">
	<path fill="#FFFFFF" d="M509.012,72.653c0.252-0.15,0.081-0.427-0.639-0.322l-0.476,0.529L509.012,72.653z"/>
	<path fill="#FFFFFF" d="M504.067,72.059c-0.832,0.297-1.782,0.784-1.195,1.202c0.807-0.532,1.026-0.348,1.891-0.974
		c0.721-0.106,1.276,0.075,1.169,0.265c0.246-0.144,1.134,0.034,1.499-0.303c-0.973-0.32-2.168-0.256-3.391,0.143
		C503.764,72.301,504.014,72.155,504.067,72.059z"/>
	<path fill="#FFFFFF" d="M433.229,75.676l0.46,0.039C433.562,75.688,433.404,75.677,433.229,75.676z"/>
	<path fill="#FFFFFF" d="M389.318,77.293c0.334-0.026,0.472-0.081,0.487-0.127C389.496,77.212,389.242,77.253,389.318,77.293z"/>
	<path fill="#FFFFFF" d="M381.805,77.026c0.161,0.009,0.297,0.016,0.442,0.023C382.077,77.007,381.907,76.987,381.805,77.026z"/>
	<path fill="#FFFFFF" d="M433.229,75.676l-1.181-0.105C431.974,75.736,432.655,75.665,433.229,75.676z"/>
	<path fill="#FFFFFF" d="M494.395,73.902c0.244-0.04,0.444-0.1,0.627-0.173c-0.2,0.031-0.394,0.062-0.594,0.093
		C494.419,73.849,494.411,73.873,494.395,73.902z"/>
	<path fill="#FFFFFF" d="M452.551,74.3l0.356-0.023c0.102-0.063,0.195-0.139,0.284-0.222L452.551,74.3z"/>
	<path fill="#FFFFFF" d="M467.376,73.24c-0.336,0.004-0.427,0.433-0.544,0.625c0.179-0.186,0.422-0.285,0.714-0.337
		C467.546,73.448,467.496,73.355,467.376,73.24z"/>
	<path fill="#FFFFFF" d="M490.944,72.418l0.413-0.086C491.25,72.355,491.069,72.392,490.944,72.418z"/>
	<path fill="#FFFFFF" d="M441.925,74.807c-0.028-0.061-0.084-0.114-0.143-0.145C441.785,74.715,441.841,74.763,441.925,74.807z"/>
	<path fill="#FFFFFF" d="M26.166,81.692c0.012-0.03-0.005-0.05-0.001-0.075C26.078,81.659,26.052,81.689,26.166,81.692z"/>
	<path fill="#FFFFFF" d="M8.933,79.548l0.239-0.021c0.025-0.08,0.052-0.158,0.052-0.236L8.933,79.548z"/>
	<path fill="#FFFFFF" d="M368.064,76.819c0.027,0.003,0.036,0.004,0.062,0.007C368.485,76.768,368.281,76.782,368.064,76.819z"/>
	<path fill="#FFFFFF" d="M242.062,78.871c1.428,0.377-2.324,0.483-0.173,0.902C241.688,79.608,243.841,79.116,242.062,78.871z"/>
	<path fill="#FFFFFF" d="M494.006,73.873c-0.2,0.015-0.403,0.029-0.608,0.044C493.676,73.912,493.863,73.898,494.006,73.873z"/>
	<path fill="#FFFFFF" d="M241.889,79.773v0.003l0.222,0.04C242.02,79.798,241.968,79.788,241.889,79.773z"/>
	<path fill="#FFFFFF" d="M336.452,77.837c0.067,0.073,0.194,0.126,0.327,0.177C336.768,77.971,336.693,77.92,336.452,77.837z"/>
	<path fill="#FFFFFF" d="M360.024,77.867l-0.584-0.042C359.672,77.857,359.859,77.866,360.024,77.867z"/>
	<path fill="#FFFFFF" d="M324.232,78.729c-0.317-0.024-0.426-0.08-0.857-0.014c0.04,0.021,0.08,0.035,0.132,0.049
		C323.663,78.703,323.87,78.67,324.232,78.729z"/>
	<path fill="#FFFFFF" d="M311.497,78.894c0.068,0.032,0.157,0.056,0.236,0.083c0.126-0.009,0.273-0.019,0.403-0.026L311.497,78.894z
		"/>
	<path fill="#FFFFFF" d="M64.877,81.612c-0.278-0.119-0.451-0.251-0.586-0.381C64.485,81.532,62.614,81.632,64.877,81.612z"/>
	<path fill="#FFFFFF" d="M494.371,73.666c-0.066,0.111-0.172,0.171-0.365,0.207c0.146-0.018,0.286-0.035,0.422-0.051
		C494.46,73.756,494.464,73.697,494.371,73.666z"/>
	<path fill="#FFFFFF" d="M323.771,82.067l-2.026-0.013C322.312,82.081,323.048,82.084,323.771,82.067z"/>
	<path fill="#FFFFFF" d="M156.271,82.107l-0.466,0.048C155.985,82.165,156.15,82.154,156.271,82.107z"/>
	<path fill="#FFFFFF" d="M315.737,82.176c-0.363-0.145-0.748-0.228-1.145-0.28c-0.083,0.034-0.179,0.063-0.233,0.111L315.737,82.176
		z"/>
	<path fill="#FFFFFF" d="M64.287,81.226c0.004,0.002,0.004,0.005,0.004,0.005S64.291,81.228,64.287,81.226z"/>
	<path fill="#FFFFFF" d="M50.952,82.186c1.928,0.018,0.908-0.54,1.318-0.856c2.302-0.15,1.063,0.411,1.846,0.697
		c1.438-0.143,2.542-0.647,3.613-0.622c0.08,0.091,0.288,0.125,0.043,0.238c1.521-0.436,4.511-0.007,6.284-0.555
		c0.131,0.05,0.197,0.097,0.23,0.138c-0.286-0.277-0.328-0.561-0.269-0.761c0.864-0.007,1.605-0.345,1.93,0.019
		c-0.53-0.013-0.574,0.134-0.823,0.246l0.906-0.155c0.813,0.523-1.237,0.177-1.239,0.562c1.768-0.163,3.828-0.588,5.181-0.437
		c0.28,0.511-3.166,0.161-1.362,0.62l-2.093-0.201c1.596,0.809-1.272-0.061,0.193,0.805c2.755,0.158,3.084-0.254,5.833-0.089
		c0.62-0.279-0.203-0.42,0.418-0.699c3.91-0.483,3.069,1.301,5.945,0.642c0.746-0.335,1.038-0.978,3.082-0.623l-0.701,0.571
		c2.668,0.074,1.528-0.817,4.321-0.412c-0.498,0.224-2.099,0.177-1.695,0.248c1.808,0.467,1.282-0.318,2.675-0.309l0.285,0.512
		c2.842-0.062,5.973-0.409,9.12-0.481c-0.175,0.15-0.715,0.307,0.02,0.467c3.971-0.229,8.472,0.118,12.298,0.446l1.465-0.431
		c0.34,0.007,0.63,0.203,0.262,0.285c1.49,0.177,0.078-0.278,0.797-0.446c0.849-0.025,1.119,0.26,0.581,0.389
		c2.635-0.355,7.504-0.755,10.274-0.265l-0.541,0.127c2.158,0.192,2.443-0.887,4.443-0.463l-0.384,0.075
		c4.686,0.223,9.868-0.146,13.442,0.536c0.684-0.631,4.638,0.309,4.945-0.574c2.674,0.453,1.906,0.606,5.675,0.922
		c1.007,0.047,1.504-0.544,2.75-0.629l0.027,0.462l1.692-0.476l0.896,0.559l1.168-0.112c-0.465-0.03-0.986-0.214-0.916-0.347
		c1.825-0.198,4.445,0.347,4.488,0.584l4.317-0.367c-0.097,0.186-0.819,0.245-1.392,0.361c2.306-0.459,0.416,0.489,2.529,0.068
		c-0.282-0.106,0.154-0.274,0.202-0.368c1.051,0.285,3.446,0.302,5.219,0.193l-0.342,0.316c3.2,0.1,6.748-0.115,10.341-0.09
		c-1.288-0.155-0.989-0.706,0.064-0.753l0.418,0.49c0.682-0.298-1.099-0.19,0.299-0.553c1.342,0.064,0.9,0.561,0.129,0.716
		l1.632-0.161c0.095,0.147-0.288,0.222-0.389,0.407c0.671-0.3,2.814,0.506,3.782-0.016l0.092,0.146
		c3.591,0.024,5.22-0.135,8.146-0.144c0.059-0.421,1.202-0.321,2.074-0.657c2.149,0.135,4.534,0.466,7.126,0.431
		c1.82-0.21,0.532-0.357,1.352-0.608c0.133,0.385,2.72,0.349,1.377,0.625c3.109-0.063,3.972-0.077,7.903-0.389
		c-0.426-0.157-0.905-0.226-0.657-0.356c0.714-0.063,1.623,0.161,1.521,0.346l-0.188,0.039c4.414-0.575,10.187,1.121,13.7,0.32
		l-0.196,0.04l3.645-0.418c1.677,0.067-1.006,0.289,0.235,0.526c3.931-0.641,6.212,0.094,9.448-0.333
		c2.509,1.134,8.893-0.079,12.277,0.645l-0.196-0.268c0.874-0.262,1.059,0.153,1.703,0.215c-0.093-0.208-0.949-0.24-0.406-0.386
		c7.403-0.316,15.288,0.262,22.885,0.445c2.778,0.044,1.565-1.396,5.071-0.794l-0.989,0.505c5.6-0.649,11.461-0.093,16.942-0.65
		c-0.326,0.117-0.333,0.266-0.869,0.27c1.163,0.349,4.286-0.024,4.302-0.319c0.855,0.025,0.202,0.264,0.729,0.408
		c1.166,0.201,2.912-0.488,3.535-0.136c0.105,0.057-0.325,0.12-0.538,0.149c0.755-0.182,3.53,0.01,2.799-0.398
		c2.063,0.178,3.938-0.224,5.583,0.006c1.064-0.475,3.528,0.188,3.858-0.471c-0.137,0.676,3.619,0.523,4.916,0.155
		c-0.433,0.215,1.135,0.185,0.63,0.481c1.485-0.046,2.845-0.205,2.58-0.547c2.751,0.745,5.488-0.787,7.05,0.216
		c4.406-0.471,8.485-0.816,12.45-1.071c-0.128,0.68-4.386,0.173-4.2,0.879c3.761-0.369,5.919-1.003,9.657-0.93
		c0.969,0.068-0.542,0.307-0.866,0.43c3.756-0.369,7.277-0.114,10.615-0.563c-0.008,0.063-0.367,0.141-0.707,0.2
		c0.659-0.038,1.537,0.062,1.454-0.243l-0.641,0.099c-1.065-0.421,2.595-0.995,2.706-1.234c-1.096,0.909,3.312,0.142,1.564,1.298
		c0.433-0.068,0.974-0.227,0.868-0.431c0.646,0.045,0.854,0.16,0.207,0.41c2.358-0.225,1.51-0.531,3.651-0.576
		c-0.004,0.148-0.435,0.217-0.65,0.397c1.075-0.316,2.155-0.634,3.969-0.552c-0.106,0.093,0.107,0.204-0.433,0.215
		c3.106-0.12,5.272-0.9,8.689-0.703c-0.984,0.671,1.167,0.186,1.365,0.74c0,0,0.457-0.053,0.914-0.106
		c0.457-0.062,0.913-0.123,0.913-0.123l-0.744-0.24c1.605-0.06,3.01-0.528,4.396-0.404l-1.185,0.282l3.003-0.235l-1.709-0.139
		c1.613-0.358-0.198-0.838,1.942-0.774c-0.432,0.076,1.605,0.096,2.453,0.096h-0.005c0.787,0,1.597-0.297,2.788-0.209
		c0.314,0.164-0.226,0.697-0.021,0.808c0.766-0.501,3.754-0.257,4.726-0.798c-0.325,0.131-0.332,0.442-0.221,0.497l0.643-0.398
		c0.748,0.089,0.859,0.148,0.748,0.388c2.238-0.027-0.738-0.678,1.927-0.486c-0.207,0.04-0.104,0.094-0.537,0.17
		c2.673,0.045,5.14-0.463,7.597-0.381c0.745,0.532-2.135,0.23-1.288,0.67c3.528-0.254,7.284-0.989,10.707-1.004l-0.641-0.035
		c0.438-0.814,2.563,0.283,4.274-0.166c-0.421,0.077-0.535,0.466-0.425,0.372c2.347,0.027,4.775-0.401,8.309-0.804l-0.429,0.223
		c1.388,0.123,3.637-0.051,5.131-0.022c0.432-0.223,1.286-0.227,0.753-0.501c4.652,0.943,8.73-0.942,12.851-0.29
		c-0.486,0.034-1.15,0.256-0.764,0.23l3.457-0.418c-0.294-0.328-0.466-0.18-1.209-0.4c0.427-0.234,1.396-0.458,2.255-0.516
		c-1.546,0.333,0.045,0.555,0.729,0.703c-0.118-0.099,0.105-0.23,0.042-0.335c1.847,0.496,0.264-0.716,2.76-0.466l-0.12,0.19
		c0.92-0.154,1.758-0.451,2.759-0.465c0.438,0.372-0.974,0.252-1.018,0.585c1.399-0.115,2.72-0.941,4.012-0.627
		c-0.588,0.151-1.444,0.21-2.033,0.36c1.41,0.378,1.563,0.248,2.594,0.255l-0.102-0.004l2.387,0.055l-0.612-0.087
		c1.689-1.16,3.561-0.428,5.879-1.269c-2.255,0.8-0.355,0.399-0.503,0.864c0.611,0.086,1.539,0.166,1.285,0.312
		c1.094-0.44,1.884,0.164,3.426-0.476c0.08,0.141,1.195-0.064,0.968,0.318c1.444-0.211-0.36-0.231-0.25-0.422
		c2.204-0.647,5.303,0.255,8.476-0.644c2.756-0.465,3.234-0.992,5.792-1.407c0.887,0.176-0.674,0.578-0.674,0.578
		c1.418,0.122,2.471,0.013,3.78-0.242c-0.258,0.145,0.025,0.234,0.44,0.371c1.058-0.108,0.67-0.578,2.085-0.456
		c-0.229,0.179-0.517,0.46-1.017,0.656c1.241-0.217,2.455-0.571,3.739-0.789c0.362,0.231-0.752,0.438-1.196,0.634
		c1.446-0.211,3.752-0.48,4.17-0.912l-0.944-0.082c0.529-0.055,0.3,0.327-0.086,0.427c-1.223,0.398-1.809-0.02-1.89-0.162
		l0.914-0.154c-1.011-0.793-3.69,0.383-5.549,0.456l0.727-0.673l-1.864,0.643c-0.416-0.136-0.718-0.465,0.19-0.618
		c-1.352-0.22-1.16,0.299-2.328,0.032c-0.129-0.045-0.074-0.079,0.04-0.111l-1.285,0.271c0.245-0.147-0.247-0.425,0.557-0.388
		c-2.356-0.204-3.727,0.716-4.637,0.303l0.192-0.051c-3.221,0.425-0.281,0.478-2.671,1.175l-1.71-1.019l-0.287,0.478
		c-0.335,0.006-0.997,0.016-0.888-0.176c-1.221,0.396,0.226,0.185-0.476,0.528c-1.634-0.31-4.416,0.488-4.826-0.216
		c-0.554,0.386,1.554,0.166-0.146,0.521c-0.54-0.75-1.974,0.267-3.465,0.004c0.425-0.434,1.829-0.312,0.338-0.575
		c-0.842,0.742-2.867,0.04-4.096,0.253c-0.024,0.548-2.677,0.405-4.742,0.725c0.12-0.191-3.926-0.039-5.869-0.107l0.052-0.096
		c-0.342,0.575-2.341,0.604-3.785,0.813c0.038-0.333,0.292-0.48,1.069-0.68l-1.363,0.094c-0.313,0.197-0.732,0.318-1.613,0.439
		l0.319-0.434c-1.813,0.134-3.627,0.748-5.98,0.587c-0.11,0.389,1.918,0.987-0.542,1.351c-0.103-0.204-0.213-0.555,0.43-0.667
		c-0.211,0.035-0.747,0.204-1.179,0.135l0.97-0.392c-1.073-0.107-0.542,0.315-1.396,0.319c0.002-0.297-0.642-0.184-0.532-0.424
		c0.217-0.038,0.75,0.09,1.07-0.04c-0.964-0.012-2.134-0.137-2.529-0.345c0.093,0.165,0.021,0.398-0.68,0.468
		c-1.816,0.1-0.641-0.329-1.709-0.436c-0.43,0.224-1.6,0.062-1.607,0.505c-0.532,0.021-0.642-0.182-0.853-0.293
		c-0.931,0.236-4.392,0.245-3.308,0.67l0.242-0.138c-0.045,0.008-0.097-0.133-0.152-0.133c0.008,0,0,0,0.008,0h-0.008
		c-3.063,1-6.418,0.184-9.469,0.504l-0.002-0.067c-1.818,0.247-4.061,0.313-5.351,0.688c-0.54,0.022-1.287-0.195-1.063-0.381
		c-1.392,0.171-1.541,0.354-3.568,0.196c1.393-0.318-0.494-0.203,1.431-0.246c-1.819-0.05-2.24-0.268-4.171,0.221
		c0.647-0.407-1.385-0.416-2.242-0.266l1.281,0.217c-0.967,0.097-1.816,0.101-2.679,0.105l0.445-0.519
		c-3.735-0.447-6.653,1.32-9.518,0.426c-0.969,0.392,2.025,0.159,1.163,0.605c-1.711,0.006-3.516-0.634-4.051-0.612
		c-2.348-0.175-2.155,0.823-4.609,0.739c0.319,0.164,0.632,0.627-1.192,0.873c-1.711,0.008-2.126-0.656-1.052-0.845
		c0.409-0.033,0.608,0.016,0.594,0.076c0.549-0.089,1.271-0.196,0.588-0.359l-0.216,0.187c-0.854-0.145-3.204-0.024-2.662-0.34
		c-1.284,0.225-0.542,0.315,0.418,0.366c-2.2-0.171-3.423,0.161-5.687,0.029c0.362,0.089,0.699,0.29,0.342,0.297
		c-3.317-0.14-1.446,0.373-3.688,0.505c-1.283-0.24,0.437-0.658-1.814-0.376c-1.386-0.15-0.307-0.465,0.236-0.623
		c-2.047,0.393-3.851-0.133-5.027-0.167l1.079-0.17c-0.646,0.101-1.176,0.111-1.716,0.123l0.629,0.341
		c-0.638-0.047-1.177-0.035-1.169-0.183c-0.649,0.249,0.519,0.579-0.772,0.93c-0.854-0.16-2.578,0.257-2.885-0.209
		c2.673,0.096-0.309-0.467,1.947-0.598c-0.434,0.066-0.965,0.077-1.605,0.03c-0.097-0.05,0.088-0.1,0.261-0.131
		c-2.563-0.36-1.158,0.563-3.804,0.615c0.328-0.274-0.627-0.49-1.057-0.423c1.065-0.021,0.521,0.432-0.451,0.659
		c-1.702-0.166-1.84,0.199-2.729,0.196l1.017,0.073c-0.337,0.274-1.186,0.26-2.366,0.372c-0.106-0.204,1.07-0.168,0.646-0.249
		c-1.301,0.499-2.979-0.413-4.802-0.054c-0.854-0.159-0.096-0.498-0.843-0.602c-2.044,0.395-2.231-0.312-4.381,0.026
		c0.63,0.343,0.736,0.252-0.774,0.638l3.54-0.338l-2.263,0.576c1.07-0.021,2.253-0.28,2.896-0.234
		c-1.077,0.317-0.969,0.227-0.448,0.511c-1.478-0.501-2.896,0.383-4.598,0.062l0.031-0.888c-2.554-0.333-4.512,0.564-7.82,0.422
		l1.065,0.128c-0.437,0.363-2.04,0.099-3.106,0.268c0.093-0.299-0.578-0.391-1.038-0.563c0.06,0.219-2.419,0.038-2.708,0.637
		l-1.482-0.354c-2.671-0.096-3.029,0.917-5.597,0.879c0.768-0.341-0.402-0.522,1.312-0.795c-0.856,0.019-1.627-0.018-1.637,0.188
		c-0.504-0.174-2.368,0.456-3.16,0.194c-0.358,0.139-0.472,0.451-1.434,0.45c-0.105-0.058,0.002-0.146,0.002-0.146
		c-0.002,0.152-1.503,0.222-0.657,0.54c-2.653-0.897-7.375,0.14-9.685-0.631c-1.868,0.118-4.119,0.235-5.816,0.273
		c0.107-0.09,0.004-0.147,0.325-0.12c-2.345-0.252-1.429,0.864-4.097,0.583c-1.367-0.465,1.411-0.272,0.561-0.445
		c-0.382-0.971-3.214,0.164-5.014-0.387l0.434-0.062c-1.374-0.317-3.339,0.402-5.579,0.354c0,0,0.108-0.087,0.012-0.147
		c-1.526,0.512-4.424,0.705-6.576,0.864c0.667-0.388,0.977-0.211,0.563-0.595c-0.965,0.064,0.289,0.619-1.637,0.747
		c-0.629-0.203-2.021-0.371-2.21-0.783l1.818-0.04c-0.936-0.526-2.354,0.041-3.312-0.042l0.12-0.235
		c-2.785,0.104-2.819,0.693-5.814,0.681l0.312,0.174c-1.633,0.6-1.375-0.314-3.004,0.136l-0.498-0.588
		c-1.078,0.153-3.778,0.609-5.715,0.74c1.095-0.45,3.359-0.696,4.76-0.972c-1.07,0.007-3.637,0.08-4.193,0.378
		c0.432-0.062,0.974-0.212,1.4-0.125c-1.311,0.479-3.037,0.725-5.17,0.735c0.373-1.151-5.561-0.229-7.111-1.139
		c-3.772,0.425-7.486-0.182-11.882-0.113c1.562,0.893-1.282,0.024-1.011,0.942c-1.024,0.058-1.415,0.043-1.507-0.017l-3.104-0.548
		c-0.736-0.267,0.974-0.202,0.879-0.408c-2.242-0.07-0.941-0.389-2.425-0.632c0.305,0.328-0.779,0.47-2.057,0.344l1.8,0.424
		c-3.132,0.487-2.708-0.771-5.866-0.287l0.999-0.288c-1.62,0.17-5.978-0.007-7.565,0.73c-0.287-0.106-0.666-0.356,0.047-0.423
		c-3.872-0.111-8.62,0.783-11.63,0.329l0.294-0.224c-0.723,0.064-1.258,0.421-2.162,0.195c0.047-0.093,0.291-0.224-0.043-0.237
		c-0.383,0.078-1.92,0.394-2.878,0.263l0.819-0.253c-3.776-0.294-5.799,0.614-8.967,0.769c0.01-0.663-2.962-0.87-4.445-0.987
		l0.053-0.093c-4.398-0.106-7.475,0.506-11.549,0.742c-2.526-0.73-8.564-0.348-12.627-0.771c0.621,0.123-0.104,0.514-0.826,0.576
		c-0.953-0.14-2.639,0.443-2.484-0.161l0.34,0.014c-0.716-0.599-2.677-0.451-4.207-0.476l-0.257,0.79
		c-3.997-1.174-10.491,0.366-12.67-0.679c-0.967,0.193-2.163,0.184-3.122,0.377l0.054-0.425c-2.675-0.123-4.011-0.184-7.32-0.101
		l0.677-0.3c-1.866-0.038-2.364,1.212-4.086,1.227l-0.514-0.637c-3.255-0.006-6.548-0.587-9.769-0.032
		c0.054-0.093,0.15-0.275,0.678-0.298c-1.532-0.026-5.925-0.468-5.374,0.406c-0.035-0.567-3.359-0.078-5.12,0.16l0.276-0.416
		c-1.487,0.524-1.535,0.67-3.608,0.805c-0.491-0.058-0.429-0.338,0.223-0.227c-1.635-0.229-1.277,0.388-3.261,0.152l0.742-0.263
		c-1.685-0.043-1.552,0.101-2.48,0.406c-1.06,0.161-3.194-0.126-3.44-0.506c-0.229,0.229-1.152,0.531-2.144,0.415
		c-0.133-0.144,0.229-0.229,0.411-0.271c-2.814-0.303-4.19,0.458-6.124,0.035c-0.039-0.139-0.165-0.209-0.325-0.252
		c2.236,0.025,4.037,0.06,3.868,0.089c0.003-0.385-1.804-0.465-0.362-0.987c-1.453,0.281-3.937,0.896-5.697,0.703
		c-0.085-0.038-0.168-0.075-0.231-0.135l0.183-0.042c-0.406-0.041-0.771-0.008-1.114,0.055c-0.561-0.067-0.918-0.116-1.457-0.126
		c-0.207-0.319-2.071-0.185-2.972-0.206c0.071,0.422-1.107,0.347-0.005,0.701c-0.143-0.03,0.171-0.049,0.77-0.063
		c0.136-0.012,0.295-0.017,0.385-0.041c-0.018,0.011-0.039,0.023-0.062,0.037c0.591-0.004,1.363-0.009,2.239-0.014
		c-0.713,0.209-1.458,0.385-2.453,0.145c-0.464,0.268-0.974,0.543-1.262,0.672c-1.229-0.597-3.604-0.93-3.933-1.295
		c-2.752,0.219-6.481,0.114-8.216,0.895c-0.783,0.097-0.897-0.233-1.189-0.359c0.452-0.076,0.989-0.061,1.234-0.173
		c-1.565,0.192-4.634,0.048-5.011,0.6c-1.97-0.263,1.111-0.505-1.599-0.428l0.367-0.168c-5.324-0.901-8.67,1.385-14.572,0.23
		c0.408,0.071,0.613,0.104,0.696,0.197c-6.733-0.522-13.881,0.426-20.524-0.39c-1.889-0.166-2.095,0.187-3.248,0.452l-0.408-0.455
		l-1.973,0.517c-2.795,0.374-4.839-1.127-8.379-0.414l0.457,0.307c-1.271-0.063-4.027,0.167-3.814-0.184
		c-0.13,0.056-0.417,0.315-0.914,0.155L18.5,78.78l-3.122,0.396c-2.42-0.179,0.379-0.939-3.153-0.997
		c-1.313,0.087-3.738,0.678-3.245,0.838c0.529,0.014,1.354,0.152,1.393,0.391l-1.2,0.119c-0.218,0.697-1.141,1.41,1.806,1.907
		l2.054-0.421l0.661,0.341l-1.728,0.016c0.979,0.322,1.602,0.042,2.298-0.149c0.164,0.181,0.452,0.308,0.86,0.376l2.017-0.66
		c0.244,0.274-0.905,0.539,0.448,0.694c0.944-0.307-0.905-0.615,0.658-0.814c0.982,0.321,0.695,0.578,1.849,0.312
		c0.162,0.18-0.083,0.294-0.54,0.371c1.027-0.212,2.716-0.082,3.247-0.452c1.023,0.396,3.465-0.091,3.363,0.57
		c0.322-0.157,1.809-0.514,2.751-0.538c-1.724,0.786,3.529,0.058,3.072,0.905c1.276-0.708,4.604-0.302,6.863-0.689
		c-0.126,0.057-0.375,0.17-0.574,0.133c1.271,0.063,1.64,0.279,2.456,0.416c0.165-0.587,2.145-0.715,3.212-1.074
		c1.557,0.571-0.947,0.687-0.46,1.233c-0.077-0.477,2.708-0.467,2.18-0.865c1.189,0.354,1.025,0.173,1.638,0.662
		c0.211-0.734,1.109-0.121,2.099-0.569c1.723,0.368,0.441,0.69,2.336,0.473C52.637,81.931,50.952,82.186,50.952,82.186z M96,81.141
		v0.009c-0.388,0.008-0.719,0.014-0.93,0.018C95.265,81.163,95.532,81.155,96,81.141z M99.786,81.16
		c-0.461-0.02-1.035-0.026-1.642-0.027c-0.132-0.146,0.013-0.295,0.394-0.285C98.33,80.943,99.223,81.033,99.786,81.16z
		 M91.797,78.185c0.6-0.056,0.8,0.028,0.881,0.115c-0.282,0.006-0.613,0.018-1.048,0.044c-0.018,0.016-0.054,0.033-0.071,0.051
		C91.616,78.315,91.683,78.24,91.797,78.185z"/>
	<path fill="#FFFFFF" d="M90.716,78.731c-0.086,0.009-0.134,0.026-0.247,0.029c0.122,0.038,0.239,0.07,0.356,0.098
		c0.073-0.045,0.147-0.091,0.214-0.131C90.93,78.728,90.817,78.73,90.716,78.731z"/>
	<path fill="#FFFFFF" d="M433.769,75.721l-0.08-0.006c0.066,0.014,0.129,0.027,0.17,0.053
		C433.804,75.75,433.804,75.737,433.769,75.721z"/>
	<polygon fill="#FFFFFF" points="152.054,82.291 152.049,82.184 151.718,82.276 	"/>
	<path fill="#FFFFFF" d="M454.666,76.083c0.042,0.034,0.123,0.067,0.279,0.09C454.932,76.145,454.812,76.115,454.666,76.083z"/>
	<path fill="#FFFFFF" d="M463.661,75.581l1.281,0.065C464.387,75.597,463.983,75.583,463.661,75.581z"/>
	<path fill="#FFFFFF" d="M470.587,75.33c0.083-0.079,0.104-0.137,0.123-0.189l-0.013-0.002L470.587,75.33z"/>
	<path fill="#FFFFFF" d="M360.576,80.675c-0.093,0.005-0.185,0.013-0.267,0.025C359.685,80.798,360.11,80.755,360.576,80.675z"/>
	<path fill="#FFFFFF" d="M393.306,78.725c-0.346,0.092-0.686,0.182-1.046,0.245C392.844,78.977,393.297,78.966,393.306,78.725z"/>
	<path fill="#FFFFFF" d="M323.993,82.069c0.004-0.003,0-0.004,0.004-0.007c-0.078,0.002-0.147,0.003-0.226,0.005L323.993,82.069z"/>
	<path fill="#FFFFFF" d="M390.737,79.028c0.585,0.059,1.072,0.021,1.522-0.058C391.781,78.962,391.217,78.943,390.737,79.028z"/>
	<path fill="#FFFFFF" d="M500.562,73.531l0.334-0.004c-0.007-0.027,0.011-0.052,0.035-0.07L500.562,73.531z"/>
	<path fill="#FFFFFF" d="M500.931,73.457l0.366-0.074C501.127,73.393,500.979,73.407,500.931,73.457z"/>
	<path fill="#FFFFFF" d="M502.067,73.225l-0.771,0.157C501.565,73.366,501.899,73.357,502.067,73.225z"/>
	<path fill="#FFFFFF" d="M491.396,73.945l-0.094,0.159C491.356,74.069,491.391,74.017,491.396,73.945z"/>
	<path fill="#FFFFFF" d="M488.618,74.173c0.666-0.009,1.688,0.215,2.606,0.058l0.077-0.127
		C490.884,74.36,489.229,73.875,488.618,74.173z"/>
	<path fill="#FFFFFF" d="M476.886,73.058l2.337-0.032c-0.418-0.136-0.968-0.318,0.088-0.428
		C476.344,72.308,479.94,72.921,476.886,73.058z"/>
	<path fill="#FFFFFF" d="M469.651,73.302c1.246-0.159-0.03-0.235,0.03-0.332C468.897,73.171,468.708,73.221,469.651,73.302z"/>
	<path fill="#FFFFFF" d="M417.441,76.087l0.109-0.389C416.587,75.795,417.548,75.848,417.441,76.087z"/>
	<polygon fill="#FFFFFF" points="407.536,78.499 408.485,78.697 408.919,78.326 	"/>
	<polygon fill="#FFFFFF" points="401.526,76.022 401.946,75.949 400.342,76.158 	"/>
	<path fill="#FFFFFF" d="M313.757,78.5l0.3,0.47C314.708,78.877,314.837,78.345,313.757,78.5z"/>
	<path fill="#FFFFFF" d="M275.85,79.354c-0.414-0.231-1.481-0.373-2.138-0.135C274.565,79.244,275.416,79.419,275.85,79.354z"/>
	<polygon fill="#FFFFFF" points="162.133,78.557 162.896,78.403 161.458,78.527 	"/>
</g>
<g>
	<path fill="#FFFFFF" d="M12.207,37.025c-0.404,0.081-0.809,0.647-1.051,1.294l-0.081-0.243c-0.242,0.566-0.566,1.051-0.809,1.536
		c-0.404,0.728-0.809,1.294-1.213,1.94c-0.161,0.242-0.404,0.485-0.565,0.728c-0.485,0.646-0.89,1.293-1.374,1.94
		c0,0-0.162,0.242-0.404,0.565c-0.485,0.647-0.971,1.294-1.455,2.021c-0.243,0.404-0.404,0.808-0.646,1.212
		c-0.162,0.323-0.324,0.566-0.485,0.889c-0.404,0.809-0.728,1.617-1.051,2.506c0.161-0.646-0.485-1.132-0.728-1.859
		c0-1.212,0.404-2.183,0.97-2.991c-0.081,0,0-0.243,0.161-0.566l0.647-0.809l0.323-0.728c0.323-0.646,0.809-1.455,1.293-2.021
		c0.243-0.323,0.485-0.566,0.729-0.808l0.403-0.566c0.081-0.323,0.162-0.646,0.323-0.97c0.162-0.404,0.485-0.89,0.729-1.375
		c0.323-0.485,0.565-0.97,0.889-1.455l0.242-0.566c0.081-0.323,0.243-0.646,0.566-0.97l0.323-0.404l0.242-0.323l0.081-0.081
		l0.89-1.293l1.132-2.425l1.051-0.97l0.323-0.808l0.809-1.132c0-0.647,0.485-1.455,0.889-1.778l0.081-0.404l0.485-0.485l0.485-0.97
		h-0.162l-0.89,0.404l-1.051,0.404h-0.323l-0.728,0.162l-0.485,0.162c-1.131,0.404-1.859,0.647-2.264,0.647l-0.242,0.242
		L9.054,26.92l-0.646,0.485l-0.404,0.081H7.519l-0.162,0.162c-0.97,0.243-1.374,0.243-1.617,0.243
		c-0.484,0.242-0.97,0.404-1.616,0.404v0.081l-0.647,0.081c-0.323,0-0.727,0.323-1.051,0.647c-0.97-0.243-1.374,0.081-1.778-1.051
		c0,0.243-0.404-0.081-0.646-0.404c0-0.566,0.081-0.889,0.323-1.051c0.971-0.566,1.051-0.889,1.132-1.132l0.565-0.647l0.566-1.051
		c0.646-1.212,0.889-1.697,1.213-2.102v-0.89h0.323l0.404-0.808l0.323-0.809c0-0.889,0.404-1.698,0.728-2.506l-0.243-0.808h0.404
		v-0.081l0.243-0.485v-0.081C5.659,15.037,6.387,14.39,6.063,13.5l0.646-0.809l0.08-0.97h0.324l0.08-0.324l0.243-1.132h0.081
		c0.323-0.566,0.565-0.889,0.728-0.889L8.73,7.518c2.83-2.829,2.83-3.396,3.396-4.204c0.404-0.809,0.971-1.779,1.294-2.021h0.161
		c1.455,0,1.617-0.485,2.426-1.293l-0.485,1.617l-0.646,1.374c-0.243,0.324-0.647,0.728-1.052,1.213l-0.242,0.243
		c-0.97,1.455-1.132,2.021-1.455,2.667c-0.323,0.728-0.728,1.375-1.051,1.94c0.081-0.081-0.162,0.404-0.485,0.728
		c-0.404,1.051-0.242,1.455-0.323,1.697c-0.889,1.132-0.565,1.779-1.132,2.991c-0.404,1.051-0.565,1.698-0.809,2.426L8.246,17.3
		c-0.162,1.212-0.566,1.94-0.89,2.506l-0.889,2.183c-0.324,0.889-0.404,1.051-0.485,1.212l-0.404,0.728
		c-0.081,0.565-0.485,1.051-0.809,1.536l0.404-0.081c0.404-0.162,0.809-0.324,1.213-0.404l1.212-0.162
		c0.809-0.242,1.698-0.485,1.698-0.646c0.565,0,1.051-0.081,1.374-0.242c1.374-0.809,2.021-1.051,2.749-0.971h0.646v-0.161h1.132
		c0.081,0,0.809-0.243,1.213-0.728l0.97-0.404l2.183-0.485l0.728,1.536l0.404,0.889c-0.323,0.324-0.646,0.566-0.89,0.889
		c-0.242,0.243-0.404,0.566-0.646,0.89c-0.485,0.646-0.889,1.293-1.293,2.021c-0.162,0.243-0.324,0.566-0.485,0.89
		c-0.485,0.809-0.728,1.212-1.051,1.697c-0.243,0.404-0.566,0.809-0.809,1.213c-1.536,2.506-1.94,2.91-2.021,3.153l0.809,1.051
		l0.081,0.728l0.646,0.97l0.243,1.455v0.485c0.161,0.646,0.161,0.646,0.403,1.94l-0.08,0.162l0.242,0.485
		c0,0.081-0.081,0.646-0.081,0.97l0.243,1.132l-0.081,0.646l-0.081,0.162v1.94l-0.081,0.081c0.566,0.566,0.647,1.617,0.728,3.799
		c0,0.323,0,0.647-0.08,0.809l0.323,0.889c0,0.647,0,1.051-0.081,1.293c-0.404,2.021-0.566,2.587-0.485,2.749
		c0,0.081,0,0.243,0.728,1.536c-0.97-0.728-1.697-0.97-2.183-1.293l-0.404-0.485v-0.646c-0.081-0.404,0.081-1.213-0.081-2.345
		l-0.242-1.051c0.081-0.97,0.081-1.536,0.081-1.859l-0.081-0.97c-0.081-0.162-0.404-0.647-0.162-0.89l-0.403-1.212
		c-0.243-0.647-0.323-1.212-0.162-2.183l-0.161-0.566v-0.162h-0.162l0.081-0.485l0.161-0.485l-0.404-0.404
		c-0.404-1.778-0.161-2.102,0-2.021l-0.565-2.021h-0.323c0-0.404,0.08-0.646,0.242-0.809L12.207,37.025z M24.575,59.742l0.081-0.162
		l-0.081-1.051l-0.242-1.859l0.162-0.081l0.08-0.161l-0.161-1.294l0.081-0.161v-0.404l-0.162-0.485l-0.162-0.646l0.324-0.485
		l-0.081-0.323l-0.081-0.809h0.162v-0.162l0.08-0.646l0.485-1.212h0.323v-0.243l0.162-0.242l0.161-0.566l0.081-0.162l0.646-0.243
		c0.729,0.162,0.971,0.485,1.051,0.728l-0.242,0.566l-0.161,0.485l-0.081,0.728v0.889l0.081,0.081h0.081l0.484-0.646
		c0.728-0.485,0.89-0.566,1.94-0.97c1.697-0.728,2.183-0.889,2.587-1.051c1.213-0.404,1.617-0.566,2.021-0.728
		c0.323-0.162,0.809-0.324,1.213-0.485h0.323l0.162-0.081l0.728-0.243c0.323-0.081,0.89-0.323,1.212-0.162l1.133-0.162l-0.081,1.778
		h-0.081v0.162c0.081,0.647,0,0.97-0.242,1.294v0.161c0,0.566-0.081,0.89-0.162,1.132c-0.242,0.485-0.323,0.809-0.485,1.213
		c-0.081,0.646-0.242,1.051-0.484,1.536c-0.323,0.728-0.728,1.778-0.647,1.536l-0.161,0.081c-0.323,0.889-0.646,1.536-0.97,1.859
		l-0.324,0.971l-1.051,2.263c0,0.324-0.161,0.647-0.242,0.97c-0.162,0.566-0.404,1.132-0.646,1.698
		c-0.324,0.808-0.485,1.212-0.647,1.536c-0.403,1.052-0.889,3.153-0.646,3.396l1.536-0.485l0.404-0.161
		c0.97-0.404,2.021-0.646,3.072-0.971l0.646-0.242c0.404-0.081,0.889-0.162,1.293-0.242c0.809-0.162,1.617-0.324,2.426-0.404
		c1.778-0.404,3.314-0.566,3.557-0.809l0.162,0.162v-0.162c0.565-0.162,1.051-0.323,1.616-0.404
		c0.485-0.081,1.052-0.162,1.536-0.242h0.646c1.375-0.162,1.94-0.162,2.587-0.242c0.728-0.082,1.456-0.243,2.264-0.485l1.94,0.081
		c1.213-0.162,2.102-0.485,3.152-1.212c-0.323,1.051-0.484,1.535-0.889,1.939s-1.132,0.809-1.859,1.133
		c-0.323,0.161-0.728,0.242-0.971,0.322c-2.102,0.162-2.829,0.485-3.557,0.324h-0.242l-2.345,0.484
		c-0.97,0.081-1.293,0.162-1.778,0.243s-0.728,0.081-1.536,0.404h-0.485l-0.808,0.323l-0.566,0.08l-1.051-0.08
		c-0.565,0.161-1.536,0.404-2.264,0.646c-0.242,0.081-0.485,0.162-0.809,0.162l-1.051,0.08c-0.161,0.162-0.565,0.485-0.809,0.324
		l-0.646,0.08c-0.323,0.242-0.565,0.324-0.809,0.404l-0.646,0.162l-0.809,0.242v0.242c-0.242,0-0.646,0.081-1.132,0.243
		l-1.132,0.485l-1.697,0.889c-0.323,0.323-0.89,0.728-0.89,0.646l-0.484,0.728c-0.162,0.647-0.243,0.971-0.243,1.294l-0.889-0.485
		l-1.455-0.728l0.242-0.728l0.161-0.242l0.243-0.647l0.323-0.727l0.323-0.566c-0.081-0.485,0.162-0.646,0.323-0.889l0.323-0.89
		v-0.081l0.162-0.646l0.565-1.375l0.324-1.374l0.808-2.021c-0.08-0.162-0.08-0.566-0.08-1.132l0.323-0.728l0.646-1.779l0.323-0.647
		l0.404-0.728l0.161-0.404c0.485-1.051,0.729-1.455,0.971-1.778h0.162c0.08-0.485,0.161-0.809,0.161-1.132l0.081-0.242
		c0.646-0.647,0.728-1.051,0.809-1.536c-0.162-0.566,0.565-1.293,1.293-2.102l-0.404-0.728l-0.323,0.081l-1.778,0.243h-0.89
		l-1.293,0.485l-0.404,0.243c-0.404,0.162-0.646,0.323-0.89,0.404l-0.889,0.242l-0.162-0.081c-0.081,0.162-0.242,0.324-0.646,0.728
		l-0.323,0.081c-0.162,0.081-0.485,0.243-1.213,1.051l0.404,1.051c0.081,0,0.161,0.081-0.081,0.889l0.081,0.485v0.161l-0.161,0.728
		l0.08,0.647l-0.08,0.728l0.08,0.243l-0.161,0.97l0.081,0.971l-0.162,0.485c0.242,0.323,0.404,0.808,0.484,1.293
		c0.081,0.323,0.162,0.565,0.162,0.809v2.102l-0.242,0.566h-0.081c0.242,0.322,0.485,1.212,0.242,1.374l0.162,1.616l-0.081,0.404
		v1.455l-0.242,0.566l-0.728,0.162c-0.971-0.324-0.809-0.89-0.809-1.537l-0.162-0.242v-0.162l-0.08-0.727l0.08-0.729l-0.161-0.484
		l-0.404-1.375l0.081-0.484h0.081V65.32c-0.243-1.213-0.243-1.859-0.243-2.345l-0.323-0.485v-0.081l-0.162-1.051l0.081-0.324
		l-0.161-0.728v-0.161L24.575,59.742z M59.257,20.453c0,0,0,0.89-0.243,1.536c-0.565,1.051-0.97,1.132-1.374,1.212l-1.213,0.404
		c-0.565,0.324-1.859,0.728-2.264,0.485c-0.728,0.647-0.97,0.647-1.293,0.647h-0.162c-0.242,0.162-0.484,0.323-0.809,0.404
		l-2.102,0.808h-0.161c-0.728,0.323-1.294,0.404-1.778,0.566l-0.485,0.161l-0.809,0.404h-0.809l-0.323,0.323l-0.97,0.485
		l-0.485,0.485l-1.293,0.404h-0.162l-0.081,0.485l-1.697,1.698l-0.728,0.485l-0.243,1.213l-0.323,0.081l-0.404,1.374l-1.535-0.323
		L36.54,33.63v-0.97l0.162-0.485v-0.081l-0.162-0.728l0.081-0.566l-0.162-0.404l0.243-2.91l-0.162-2.102h-0.081v-1.536l0.162-0.485
		l-0.081-0.728c-0.162-1.536-0.162-1.778-0.081-2.425l-0.081-0.324l0.081-0.404l0.162-0.485l-0.162-0.323l-0.081-0.323v-0.89h-0.08
		l-0.081-0.323v-0.485l0.161-0.565V15.44l-0.161-0.808l0.081-0.647h0.161L36.54,13.5h0.162v-0.081l0.08-0.404v-0.646l0.081-1.859
		l0.162-0.728l-0.243-0.809l1.051-0.565l0.404,0.404l-0.161,0.162c0.242,0.162,0.404,0.566,0.404,0.809v0.809l0.081,1.051
		l0.242,1.374c0.081,0.89,0.081,1.455-0.081,1.779l0.162,0.162c0.242,3.233,0.242,3.638,0.242,3.961l0.162,1.375v2.667l0.08,1.294
		l0.081,0.889l0.081,0.808l-0.081,0.162v0.242l-0.161,1.375l0.08,0.889c0.323-0.323,0.647-0.728,1.052-1.051
		c0.484-0.404,0.97-0.728,1.535-1.051c0.729-0.404,1.536-0.809,2.264-1.132c0.404-0.162,0.728-0.324,1.051-0.485
		c0.647-0.242,1.294-0.485,1.779-0.646c0.323-0.081,0.646-0.162,0.809-0.243c0.565-0.081,1.697-0.485,2.344-0.647
		c-0.323-0.162,0-0.242,0.242-0.323c0.647-0.162,1.375-0.323,2.021-0.485c0.323-0.081,0.566-0.081,0.889-0.162
		c0.971-0.162,1.698-0.323,2.345-0.485c0.243-0.081,0.566-0.162,0.809-0.242c0.242-0.081,0.565-0.162,0.809-0.243
		c0.404-0.162,0.809-0.324,1.212-0.566L59.257,20.453z"/>
	<path fill="#FFFFFF" d="M84.479,38.723l-0.404-0.889c-0.161-0.404-0.242-0.889-0.484-1.293c-0.324-0.566-0.729-1.132-1.213-1.536
		c-0.323-0.243-0.566-0.404-0.971-0.566c-0.08,0,1.213-1.617,1.536-0.97l0.081-0.162c0.566,0,0.809,0.404,1.132,0.728
		c0.646,0.647,0.97,0.89,1.051,0.89l0.565,1.051v0.243c0.404,0.081,0.404,0.162,0.404,0.647c0.243,0.404,0.243,0.646,0.404,0.889
		l0.162,0.566v0.161h0.162l0.242,0.89l0.081,0.242c0.161,0.647,0.242,1.294,0.242,1.779l-0.162,0.323l0.323,1.212l0.162,0.89
		l0.162,0.565c0,0.081,0.08,0.324,0.161,0.566v0.565l-0.081,0.647l0.081,2.344l-0.242,0.809v0.162l0.242,0.566l-0.404,0.404
		l-0.161,0.728h0.161l-0.161,0.646V51.9l0.08,0.162l-0.808,1.293l-0.081,0.809l-0.404,0.485l-0.404,0.162h-0.081l-0.728,0.162
		l-1.051-0.243l-0.242-0.242c-0.323,0-0.646-0.162-0.809-0.323l-0.646-0.485l-0.646-0.97v-0.404l-0.404-0.485l-0.081-0.485
		c-0.162-0.647-0.162-1.212-0.162-1.375l0.162-1.132l0.242-0.97l0.162-0.323l-0.162-0.566c-0.161-0.161-0.323-0.485,0.809-0.728
		l-0.323-0.323h0.323l0.161-0.728v-0.162l0.89-0.323h0.081l0.081-0.162c-0.404-0.162-0.404-0.323-0.162-0.323l1.051-0.647
		c0.162-0.243,0.404-0.566,0.89-0.808v-0.404c-0.081-0.728-0.081-1.617-0.081-2.102c0,0.081-0.323-0.485-0.404-1.051
		C84.884,39.37,84.317,38.561,84.479,38.723z M85.935,47.696c-0.162-0.323-0.242-0.728-0.323-1.131
		c-0.081-0.566-0.081-1.212-0.161-1.698l-0.324,0.485c-0.08,0.323-0.404,0.808-0.646,1.455l-0.081,0.404l-0.404,1.778l-0.161,0.646
		l0.081,1.293l0.565,0.889h0.404l0.404-1.132l0.081-0.565c0.242-0.323,0.161-0.647,0.161-1.132v-0.728h0.404L85.854,48.1
		l0.162-0.161L85.935,47.696z M96.201,39.289c0,0-0.889-0.162-1.132-0.566l-0.323,0.162l-0.484-0.162L94.1,38.804
		c-1.051-0.728-1.051-0.728-0.809-1.456l0.809-0.242l0.485-0.162l0.97-0.566h0.081l0.565-0.081l0.243-0.242l0.809-0.404l0.403-0.243
		l0.647-0.162c0.08-0.242,0.484-0.162,1.051-0.081l1.617-0.323c1.374-0.565,2.182-0.889,2.99-1.132
		c0.404-0.081,0.728-0.162,1.051-0.242h0.404l0.324-0.162c3.152-0.242,3.152-0.242,4.526-1.616
		c-0.565,0.889-0.646,1.616-0.808,2.183c-0.081,0.323-0.324,0.728-0.485,0.889l-1.294,0.324l-1.535,0.566
		c-0.485,0.081-0.89,0.162-1.052,0.162l-0.161-0.081l-0.728,0.242h-0.081l-0.242,0.243l-0.566,0.323l-1.051,0.566h-0.323
		l-1.213,0.242l-0.242,0.162h-0.162l-0.565,0.242l-0.243,0.566l-0.646-0.243l-0.323,0.243l-0.242,0.242h-0.971
		c-0.323,1.213-0.565,0.243-0.809,0.081L96.201,39.289z M99.273,51.9c-0.646,0.485-1.132,0.646-1.455,1.051l-0.162-0.242
		c-0.808,0.404-0.889,0.565-1.051,0.646l-0.485,0.081c-0.727-0.728-0.646-0.809-0.403-1.375l1.051-0.647
		c0.97-0.808,1.536-1.051,2.264-1.212c-0.162-0.081,0.242-0.404,0.646-0.566c1.051-0.485,1.455-0.728,1.859-0.889
		c1.536-1.212,1.859-1.051,2.264-1.375c0.646-0.242,1.293-0.565,1.778-0.808c0.242-0.243,0.566-0.404,0.889-0.566l0.89-0.566
		l0.646-0.404l0.728-0.404l0.485-0.647c0.97-0.647,1.294-0.889,1.94-1.051c0.081-0.404,0.323-0.565,0.323-0.646l0.565-0.646
		l0.89-2.021l0.081-1.132v-0.565l0.242-0.647c0.162-0.323,0-0.647,0.242-0.97c-0.242,0-0.161-0.162-0.161-0.808
		c0.081-0.809,0.081-1.051,0.242-1.212l0.404-2.506l0.243-0.97l0.404-1.374l0.646,0.404l1.455,0.97l-0.162,0.485v0.323l0.323,0.97
		l0.243,3.881l-0.324,1.293l-0.08,0.809l-0.162,0.566l-0.404,1.617l-0.565,0.647v0.485c-0.404,0.081-0.646,0.97-0.728,1.859
		c-0.081,0.646-0.081,1.293-0.081,1.536l0.081,0.485l0.161,0.485l-0.08,1.294l0.161,0.161v1.456c0.081,1.212-0.081,1.778,0,2.263
		v0.809c0,0.485,0,0.89,0.081,1.375c-0.081,1.051,0.081,1.617,0.161,1.94c-0.161,0.404-0.161,1.213-0.161,1.778v1.859
		c0,0-1.94-0.081-1.617-0.889c-0.323-0.243-0.323-0.89-0.323-1.456c0-0.162-0.161-0.566-0.404-0.97l0.081-0.808
		c-0.081-1.051-0.081-1.455,0.081-1.859l-0.242-2.749l-0.162-0.728v-1.213l-0.081-0.565l-0.161-1.536V46.08
		c-0.243-0.728-0.485-0.566-0.647-0.566l-0.161,0.243l-1.455,1.132c-0.323,0.243-1.132,0.728-1.375,0.889l-0.08,0.323l-1.294,0.485
		v0.242h-0.323v0.162l-0.728,0.081l-0.485,0.324h-0.08c-0.081,0.485-0.162,1.051-0.647,0.646c-0.484,0.323-0.484,0.646-1.374,0.242
		l-0.485,0.404l-0.728,0.243v0.162h-0.484c-0.566,0.485-0.729,0.485-0.971,0.566l-0.08-0.081h-0.324
		c-0.646,0.646-0.809,0.565-1.212,0.565L99.273,51.9z M127.163,41.794v0.243c0,0.323,0.162,0.808,0.081,1.051v0.323l-0.242,0.889
		c0.161,0.728,0.242,1.698,0.323,2.587v1.617c0,0.485,0,0.89-0.081,1.375c-0.161,0.808-0.161,2.263-0.161,2.506
		c0.323,0.404,0.404,1.131,0.08,1.697c0.324-0.323,0.485,0.485,0.404,0.404v0.323l-0.08,1.051c0,0.89,0,1.779,0.646,2.345
		c-0.485,0.323-0.485,0.485-0.485,0.728c0.243,0.566,0.647,1.213,0.89,1.536l-1.213,0.081c-1.455,0-1.132-1.212-1.374-1.778
		l-0.404-0.889l0.081-0.89l-0.081-0.728l-0.162-0.809c-0.08-0.242-0.161-0.565-0.161-0.889l-0.404-1.455l0.081-0.243v-0.161
		l0.161-0.323l-0.08-0.728v-1.455l0.08-0.081v-0.89l-0.08-0.728l-0.324-0.646c0.324-0.323,0.162-0.485,0.243-1.698l-0.243-1.293
		l-0.242-0.242l0.242-0.971v-0.323l-0.08,0.081v-0.809l0.08-0.565v-1.779l0.243-2.425l-0.162-0.404v-1.374l-0.242-0.728
		c0.081-0.243-0.243-1.375-0.243-1.294c0.324-1.051,0.324-1.374,0.324-1.697v-0.485l0.08-0.646l0.243-0.566l-0.162-1.455
		l-0.161-0.243v-1.617l0.484-0.081l0.162-0.809v-0.162l0.081-0.242l0.08-1.94l-0.242-0.646l1.132-0.081
		c0.404,0.323,0.646,0.809,0.728,0.89v0.808h0.081v2.021c0.08,0.323,0.08,0.89,0.08,1.213l-0.161,0.081l0.242,1.617l0.081,0.081
		c-0.081,0.809,0,1.213,0,1.374v0.566l0.081,1.051c0,0.242,0,0.323-0.081,0.889v0.081l0.081,1.375v0.243l0.081,0.889l-0.162,0.97
		l-0.081,0.242l0.081,1.698v1.051l-0.081,0.808L127.163,41.794z"/>
	<path fill="#FFFFFF" d="M154.755,42.441l-0.162,0.162l-0.485,0.243l-0.565,0.243c-0.404,0.081-0.728,0.323-1.132,0.242
		l-1.859,0.647l-1.455,0.566h-0.323l-0.566,0.162l-1.213,0.485h-0.323l-0.565,0.323l-0.242,0.162v0.081l-1.294,0.324l-0.485,0.161
		l-0.404,0.243l-0.889,0.404c-0.646,0.243-0.971,0.485-1.294,0.566l-0.323,0.323c-0.323,0-1.455,0.404-1.213,0.728l-0.484,0.162
		c-0.485-0.243-0.809-0.162-1.213,0.242l-0.565-0.323h-1.778l-0.404,0.081c0,0.323-0.162,0.242-0.971,0.242l-0.404-0.081h-2.264
		c0-0.161-0.161-0.728,0-1.132l0.162,0.081l1.213-0.485l1.132-0.162l-0.081,0.162c0.242-0.081,0.809-0.404,1.132-0.404l-0.162-0.081
		l0.647-0.324l1.131-0.243c0.162-0.323,0.324-0.404,0.647-0.404c0.484-0.162,0.808-0.324,1.051-0.404
		c0.565-0.324,1.616-0.404,1.697-0.647c0,0,0.243-0.161,0.485-0.242l2.102-0.647l0.242-0.243l1.859-0.889
		c0.566-0.243,1.375-0.404,2.021-0.566l0.89-0.323l0.323-0.081l0.728,0.081v-0.081c1.212-0.323,1.536-0.565,1.859-0.646l0.646-0.242
		c1.294-0.162,1.536-0.404,1.94-0.647c0.728-0.404,1.616-0.647,2.587-0.889c0.404-0.081,0.97-0.243,1.374-0.323l0.971-0.243
		l1.535-0.324l0.728,0.081c0.243-0.081,0.566-0.162,0.89-0.242l0.485-0.324c0.646-0.323,1.212-0.485,1.858-0.647
		c0.647-0.161,1.294-0.323,1.859-0.404l0.566-0.081c0.646-0.081,0.97-0.081,1.455-0.162c0.566-0.081,1.374-0.323,2.345-0.728
		c-0.485,0.89-0.485,1.859-0.971,1.94l-0.323,0.404l-1.455,0.242l-1.213,0.323h-0.565l-1.132,0.647
		c-0.323,0.162-0.566,0.323-0.809,0.404l-1.293,0.485l-0.323,0.081h-0.323c-1.213,0.404-1.698,0.485-2.184,0.485l-0.809,0.162
		l-0.646,0.243l-0.484,0.243l-1.536,0.161l-0.728,0.324l-0.323,0.323H154.755z M135.515,14.147v-1.212h-0.081v-2.506l0.161,0.243
		l0.081-0.081v-0.162l-0.323-0.97V9.377l0.566-0.728V8.488l0.161-0.162l0.404-1.455l0.728,0.081c0.323,0,0.485,0.162,0.566,0.485
		c0.161,0.566,0.322,0.809,0.08,1.132l-0.08,0.243v0.647l0.242,0.162v0.323l-0.081,0.323l0.242,1.859v0.647l0.081,0.242
		l-0.081,1.213v0.323l-0.161,0.162l0.161,1.132l-0.161,0.324c0.242,0.242,0.484,0.565,0.646,0.97
		c0.162,0.485,0.323,1.051,0.323,1.617l-0.081,0.484h0.081c0.566,1.132,0.323,1.132,0.404,1.375l0.242,0.728
		c-0.08,0.161,0.162,0.728,0,1.212c-1.051,0.404-0.889,0.728-1.536,0.162l0.081-0.081v-0.081c-0.323-0.081-0.484-0.324-0.484-0.647
		v-0.565l-0.89-1.698l-0.889-2.587h0.08v-0.242l-0.242-0.646l0.081-0.566l0.081-0.323l-0.243-0.242l-0.081-0.728L135.515,14.147z
		 M149.984,16.653l-0.161,0.728c-0.323,0.404-0.809,0.889-1.051,1.131c0.08,0,0,0.243-0.081,0.647v1.212l-0.243,1.132
		c0.081,0.243,0.081,0.809,0.081,0.97c0,0.404-0.161,0.889-0.081,1.132v1.94l-0.322,0.162v0.565l-0.243,1.213l-0.081,0.566
		c-0.08,0.97-0.161,1.779-0.565,2.102l-0.809,2.183c-0.161,0.242-0.242,0.566-0.404,0.809c-0.242,0.404-0.646,0.728-1.051,1.051
		l-1.213,0.97l-1.051-1.132c-0.323-0.323-0.646-0.646-0.89-0.97c-0.484-0.566-0.808-1.051-1.131-1.698
		c-0.243-0.404-0.485-0.889-0.647-1.375c-0.161-0.404-0.161-0.889-0.242-1.374c-0.081-0.566-0.081-1.213-0.081-1.859
		c0,0.081,0.081-0.323,0.162-0.728c0.161-0.728,0.484-1.132,0.646-1.455l0.081-0.809c0.242-0.646,0.565-1.212,1.051-1.859
		l0.161-0.485c0.647-0.809,1.213-1.536,1.859-2.102c0.485-0.485,0.971-0.809,1.455-1.212c0.081,0.081,0.404-0.404,1.133-0.809
		l-0.485-0.404l0.081-1.375c-0.162-0.566-0.162-0.889-0.243-1.212l-0.161-1.294c-0.162-0.646-0.162-0.97-0.162-1.536l0.162-0.161
		l-0.081-0.243l0.081-0.243v-0.081l-0.162-0.161l-0.162-0.728h-0.403l-0.081-0.485c0.404-0.242,0.646-0.485,0.809-0.646
		l-0.324-0.081l-0.08-1.051l-0.162-0.404l0.242-0.566h0.324l-0.081-1.698l-0.162-1.617l0.081-0.324V2.749l0.081-2.425l1.051,1.051
		l0.485,0.889v0.243l0.161,0.404l-0.081,1.455l0.324,1.779c0.242,0.97,0.323,1.132,0.323,1.697c0.323,3.719,0.485,4.446,0.565,4.446
		c-0.08,0.162,0.081,0.89,0,1.132l0.162,1.213v0.404h0.08v0.242l-0.08,0.89l0.161,0.242c0.647-0.404,1.052-0.809,1.294-1.051
		L149.984,16.653z M145.862,20.129c-0.647,1.374-1.132,1.213-1.455,1.455c0.08,0.646-0.243,1.213-0.404,1.213l-0.485,0.808
		c0,0.243,0,0.566-0.404,0.647l-0.485,0.728c0,0.081-0.161,0.889-0.242,1.132c-0.081,0.242-0.162,0.646-0.242,0.97l-0.162,0.728
		l0.323,0.728l0.162,0.566l-0.081,0.565c0.809,0.485,0.809,0.97,0.889,1.213l0.729,1.132c0-0.323,0.242-0.89,0.646-1.051
		l0.081-1.051c0-0.566,0.08-1.051,0.565-2.344l0.404-2.91l0.404-1.051l0.081-2.021l-0.081-1.293L145.862,20.129z M161.545,62.652
		l-1.374,0.323l-1.536,0.566l-2.264,0.808l-0.242,0.162l-0.485-0.081h-0.081l-0.161-0.081l-0.728,0.242l-0.404,0.485l-1.051-0.161
		h-0.081l-0.485,0.161l-0.646,0.081l-0.242,0.242l-0.243-0.161h-0.323l-0.485-0.081c-0.242,0.162-0.728,0.162-0.808,0.162v0.08
		l-1.132,0.162l-0.081,0.081l-1.051,0.081l-1.294,0.242h-1.616v-2.91h0.08l0.162-0.809v-0.162c-0.404-0.485-0.323-0.889-0.081-1.375
		l-0.081-0.889l-0.08-0.566l0.161-0.323V58.69l-0.161-0.808l0.08-1.375l0.081-1.212l0.081-0.081l0.404-0.728
		c-0.081-0.162-0.081-0.485-0.081-1.132h0.162v-0.323c-0.162-0.809-0.404-1.051-0.566-1.132l1.132-1.132l0.728-0.081l0.566,2.264
		l0.161,1.617v0.808l-0.081,0.97l0.081,0.323l0.081,2.264l0.081,0.566c0,0.808,0,1.455-0.243,1.536l0.243,0.809
		c0,0.162,0,0.404,0.323,1.213l0.728-0.162c0.565,0,1.374-0.161,2.102-0.242l0.485-0.243l0.485,0.162l1.132-0.162h0.484l0.728-0.162
		l1.132-0.404l1.132,0.081v0.081l0.566-0.404c0.646-0.404,1.616-0.728,2.667-1.051l0.647-0.162c0.889-0.242,1.859-0.404,2.667-0.566
		c0.485-0.081,0.89-0.162,1.294-0.243l0.565-0.081c2.021-0.485,2.184-0.647,3.072-0.566c0.081-0.404,0.809-0.646,1.536-0.728
		l0.485-0.081c1.293-0.162,1.939-0.242,2.344-0.728l0.728,0.162h0.728c0.809-0.081,1.536-0.324,2.264-0.809
		c0,0.889-0.081,1.212-0.323,1.536l-0.565,0.485c-0.89,0.404-1.859,0.889-2.345,0.808c-0.323,0.162-0.646,0.323-1.051,0.323h-0.404
		l-1.698,0.485l-0.484,0.323c-0.728,0.243-1.213,0.404-1.778,0.728l-0.243,0.081h-0.404c-0.565,0.242-0.97,0.485-1.212-0.162
		c-0.162,0.566-0.566,0.646-0.809,0.566l-1.213,0.162l-0.809,0.243L161.545,62.652z M151.278,8.65l0.242-0.485l-0.323-1.293V6.548
		l0.404,0.081l-0.161-0.324l0.565-0.728l0.081-0.161l0.889-0.809c0.243-0.162,0.566-0.162,0.971-0.162l0.08,0.566l0.162,0.565
		l-0.081,0.809l-0.242,0.323l-0.243,0.566l0.404,1.859l0.081,0.728v0.323l-0.081,1.132l-0.08,0.242v0.485l-0.081,0.242v0.89
		c0.404,0.485,0.646,1.293,0.809,2.021c0.081,0.243,0.081,0.647,0.081,0.809c0.323,1.132,0.242,1.375,0.242,1.698l-0.162,0.162
		c0.243,1.213-0.323,2.183-0.728,2.264c-0.323,0-0.565-0.243-0.728-0.404l-0.97-2.344l0.081-0.566v-0.081
		c-0.243-0.242-0.162-0.646-0.162-1.132l-0.485-1.293h-0.08l-0.162-0.647l-0.161-0.809V12.53l0.08-1.536l0.081-0.485l-0.161-0.243
		l-0.162-0.808V8.65z M175.854,8.812c0,0-0.161,1.779-0.646,2.021c-0.161,0.323-0.565,0.566-0.97,0.646l-1.536,0.485
		c-0.728,0.323-1.455,0.566-2.102,0.566l-0.323,0.323l-0.566,0.243l-1.536,0.809l-0.081,0.161c-0.404,0.243-0.646,0.566-0.808,0.809
		h-0.647l-1.051,0.647l-0.242,0.485c-1.294,0.323-2.183,1.132-2.183,1.213l0.081,0.889l-0.081,1.617l0.081,0.97l0.161,0.243
		c0,0.728,0,1.455-0.242,1.374c0.081,0.728,0,1.374-0.162,1.94c-0.081,0.323-0.161,0.565-0.242,0.889
		c-0.323,0.97-0.646,1.94-1.132,2.91c-0.081,0.081-0.485,0.808-0.485,0.808c-0.161,0.243-0.242,0.485-0.485,0.647
		c-0.403,0.324-0.889,0.566-1.293,0.647l-1.859-0.485c-0.404,0.243-0.646-1.374-0.728-1.536c-0.161-0.565-0.404-1.212-0.565-1.778
		l0.161-1.132l0.081-0.323c-0.242-1.778-0.081-2.102,0-2.506c0.162-0.647,0.404-1.213,0.646-1.698
		c0.242-0.647,0.566-1.212,0.89-1.698s0.728-1.051,1.132-1.536c0.242-0.323,0.565-0.646,0.889-0.97v-0.89l0.162-0.485l0.161-1.051
		l-0.242-0.404v-0.566l0.081-0.728l-0.323-0.404V8.731l0.081-0.243c0.08-1.051-0.324-1.536,0.727-2.83l-0.08-0.809l-0.081-0.565
		l0.323-0.566V3.638l0.162-0.647l0.08-1.131h0.485V1.778h0.809c0,0.243,0,0.404,0.161,1.051l-0.08,0.646l-0.081,0.081l0.081,0.485
		v0.889l-0.081,2.506c0.081,0.809,0.081,1.455-0.162,2.102l0.162,0.324l0.161,1.616l0.162,1.132
		c0.242,0.566,0.081,1.455,0.162,1.698c0.161-0.162,0.404-0.243,0.728-0.404l0.565-0.323c0.404-0.243,1.374-0.647,1.617-0.809
		c0.404-0.485,0.646-0.566,0.97-0.728c0.566-0.243,1.132-0.566,1.617-0.728c0.808-0.323,1.536-0.404,2.264-0.647
		c0.484-0.162,0.97-0.243,1.455-0.404l0.646-0.162c0.404-0.081,0.728-0.162,1.132-0.323c0.484-0.162,0.889-0.404,1.374-0.646
		L175.854,8.812z M158.877,25.95l0.081,0.243l0.242,1.132l0.404-0.647l0.162-0.565l0.242-0.485c0-0.646,0.323-0.809,0.404-1.697
		h0.081l0.081-0.647l0.242-0.566l-0.162-0.243v-1.536l-0.161-1.698l-1.213,2.345l-0.081,0.646l-0.323,0.809V25.95z"/>
	<path fill="#FFFFFF" d="M208.676,44.381l-0.728,0.728l-0.646,0.243l-1.132,0.808l-0.162,0.162l-0.404,0.243l-0.485,0.162h-0.161
		l-0.323,0.323h-0.242l-0.404,0.485l-0.485,0.081l-0.728,0.485l-0.404,0.404h-0.646l-0.081,0.404l-0.485,0.323l-0.161,0.081
		l-0.485,0.323l-0.081,0.081l-0.081-0.243l-0.323,0.081l-1.212-0.081c-0.404,0-0.89-0.404-0.566-1.617l0.242,0.162l0.566-0.566
		h0.081c0.161-0.242,0.242-0.323,0.646-0.485l0.485-0.161l0.565-0.809h0.565l0.162-0.646h0.404l0.646-0.404l1.698-0.809
		c0.161-0.243,0.484-0.323,0.728-0.404l0.484-0.162l0.404,0.081c0.162-0.242,0.404-0.485,0.728-0.728
		c0.89-0.646,2.103-1.132,2.83-1.293c0.808-0.404,1.293-0.404,1.616-0.485l0.485-0.162l1.374-0.162l-0.323-0.728l0.728-0.081v-0.081
		l0.242-2.425l0.162-0.566c0-0.485,0-1.212,0.404-2.102l-0.081-0.081l0.162-0.808V33.63l0.242-0.324l0.485-2.829H214.9
		c0.323-0.728,0.404-1.132,0.485-1.455l0.161-0.809v-0.728l0.081-0.323v-1.051l-0.081-1.617l-0.323-0.646v-0.081
		c-0.565,0.404-1.051,0.485-1.536,0.566h-0.484l-2.345,0.404l-1.213,0.566l-1.051,0.162v0.162h-0.646l-1.536,0.323
		c-0.485,0-1.94,0.404-2.102,0.728l-0.89,0.243c-1.455,0.485-1.697,0.647-2.021,0.647l-0.889,0.323l-0.081-1.051
		c0-0.162,0.081-0.809,0.081-0.89h0.242c1.051-0.485,1.375-0.889,2.021-0.889c0.242-0.162,0.484-0.162,0.809-0.243
		c0.646-0.404,1.535-0.728,1.778-0.808c0.809-0.404,1.293-0.566,2.345-0.647c0.889-0.728,1.374-0.646,2.021-0.889
		c0.97-0.323,1.213-0.485,1.536-0.566c0.809-0.162,1.374-0.323,1.859-0.404c0.404-0.161,0.889-0.161,1.213-0.323
		c0.08,0.081,0.404,0.081,0.728-0.081l0.323-0.081h0.404l2.102-0.162v1.132l0.242,1.293l0.323,0.808l-0.08,0.566v0.565
		c0.08,1.051,0.08,1.294,0,1.536l-0.243,1.132c-0.484,2.425-0.484,2.829-0.565,2.991c0.404,0.485,0,0.485-0.243,0.809l0.081,0.081
		l-0.404,1.94c0.081-0.081,0,0.323-0.081,0.647c-0.161,0.889-0.322,1.698-0.727,2.021l-0.324,1.051c0,1.698-0.08,2.425-0.161,3.072
		c0,0.323,0,0.728-0.081,1.051l-0.242,1.455l-0.243,1.94c-0.08,0.323-0.08,0.565-0.161,0.889c-0.081,0.646-0.242,1.293-0.404,2.021
		c-0.081,0.485-0.242,1.051-0.323,1.536l-0.081,0.646c-0.081,0.485-0.081,1.132-0.081,1.455v0.243c0,0.97,0,1.617-0.081,2.102
		c-0.08,0.485-0.242,0.889-0.323,1.374c0,0.242-0.161,0.889-0.242,1.536v0.889c-0.323,3.395-0.89,2.102-2.345,2.587
		c0.404-0.243,0.243-1.375,0.566-1.536c-0.242,0-0.404-0.323-0.323-0.97c0-0.081,0.081-0.485,0.161-0.97l0.242-1.375
		c-0.161-2.102-0.161-2.425-0.08-2.667l0.161-2.91c0-0.162,0.081-0.728,0.081-0.89l0.242,0.081v-0.809
		c0.081-0.566,0.162-1.213,0.324-1.617l0.242-0.728v-0.243l0.081-0.566l0.081-0.081l0.08-0.162l-0.565-1.778l-0.728,0.081
		c-0.081,0.404-0.081,0.565-0.404,0.485l-1.374,0.404h-0.081l-0.485,0.162L208.676,44.381z M237.616,32.66
		c-0.403,0.485-0.889,0.97-1.778,0.97c-0.242,0.404-0.889,0.808-1.455,0.97l-0.404,0.323l-1.212,0.646l-1.375,0.243l-0.242,0.081
		v0.081l-0.323,0.404c-0.485,0.404-0.728,0.323-0.89,0.162c0.162,0.324-0.161,0.404-0.484,0.404l-1.294,0.485l-0.565,0.243
		l-0.404,0.162h-0.89l-1.051,0.323l-1.213,0.647c-0.404-0.162-1.374,0.728-1.293,0.647l-0.89,0.081l-0.565,0.566l-0.081-0.081
		l-0.728-0.485c-0.162-0.728,0-0.889,0.242-1.051l0.566-0.404c0.081-0.081,0.485-0.485,1.293-0.889
		c0.323-0.162,0.566-0.243,0.971-0.323c0.565-0.485,1.778-1.051,1.697-0.809c0.728-0.647,1.536-0.89,2.91-0.809
		c0.323-0.889,0.646-0.97,0.97-0.97l1.536-0.89c0.728-0.323,1.213-0.404,1.778-0.646c0.729-0.485,1.133-0.647,1.536-0.89
		l0.971-0.404l0.485-0.404l0.403-0.243l0.728-0.404l0.324-0.485c0.565-0.243,0.97-0.566,0.808-0.485l0.809-1.294l0.081-0.808v-2.183
		l0.162-0.566c0-0.566,0.08-1.536,0.808-1.778h-0.323l0.242-0.728l0.404-0.728l0.647-1.132l1.697,0.242l0.646,0.323l0.243,0.809
		c0.484,2.183,0.404,3.638,0.242,4.204l-0.566,1.375l-0.484,0.97c-0.162,0.324-0.242,0.89-0.242,1.051
		c-0.566,0.323-0.809,0.566-0.729,0.566l-0.242,1.132c0,0.404,0.081,0.809,0.081,1.132c0,0.242-0.081,0.485-0.081,0.728v0.808
		l-0.081,1.536c0,0.243,0,0.566-0.08,0.808c-0.323,1.455-0.566,2.668-0.647,2.911c0.162,1.051,0.162,1.375,0.081,1.778
		c0.081,1.293,0.081,2.021,0,2.668l-0.081,0.404c-0.161,0.971-0.161,1.455-0.242,1.859l-0.081,1.375l0.081,2.021
		c-0.242,0.728,0,1.374-0.162,1.859l0.081,0.485c0,0.728,0,1.132,0.485,2.425c-0.89-0.081-1.455-0.323-1.778-0.889l-0.162-0.404
		c-0.242-0.647-0.485-1.536-0.646-2.103l-0.081-0.484c-0.081-2.345-0.242-3.396,0-4.608l-0.081-0.728l0.162-0.646v-0.485
		l0.081-1.132c0.08-0.646,0.08-1.051,0.08-1.374l-0.08-0.485l-0.081-0.242l0.161-0.485c0-0.242-0.161-0.565,0.243-0.889
		c0-0.889,0-1.293,0.081-1.778c0.08-0.404,0.08-0.809,0.242-1.132l0.162-0.808l-0.081-0.081l0.081-0.162v-0.646l0.161-0.485v-0.243
		l-0.161-1.374c-0.566,0.404-0.89,0.889-0.971,0.565L237.616,32.66z M240.688,26.92l0.404-0.889
		c0.162-0.081,0.323-2.021,0.404-2.264l-0.242-0.889l-0.243,0.889l-0.161,1.698L240.688,26.92z"/>
	<path fill="#FFFFFF" d="M263.114,6.144c-0.243,0.242-0.485,0.323-0.566,0.323c-0.08,0-0.242,0-0.323,0.081
		c-0.323-0.081-0.323,0-0.404,0c-0.161,0.081-0.323,0.161-0.485,0.081c-0.242,0.323-0.242,0.404-0.646,0.404v0.323h-0.97
		l-0.646,0.323c-0.081,0.162-0.162,0.243-0.243,0.404h-0.646c-0.162,0.162-0.565,0.485-0.565,0.485h-0.323
		c-0.081,0.081-0.162,0.162-0.324,0.162c-0.161,0.161-0.323,0.161-0.565,0.081c-0.162,0.162-0.404,0.243-0.728,0.404V9.054
		c-0.081,0.081-0.081,0.162-0.162,0.323c-0.242,0-0.404,0-0.565,0.162V9.62h-0.162c-0.081,0.162-0.323,0.323-0.565,0.162
		c-0.081,0.081-0.242,0-0.566,0l-0.161,0.081c0.081,0.081,0.161,0.161,0.161,0.242h-0.484l-0.243,0.323
		c-0.081,0-0.323,0.081-0.404,0.081h-0.161c-0.162,0.081-0.242,0.162-0.404,0.162c-0.081,0.162-0.323,0.324-0.646,0.324
		c-0.162,0.161-0.324,0.323-0.485,0.404l-0.485,0.162c0,0-0.08,0-0.08-0.081c-0.081,0.162-0.243,0.243-0.324,0.324l-0.08-0.162
		c-0.162,0.162-0.243,0.242-0.566,0.162c0,0,0,0.081-0.081,0.081l-0.565,0.566h-0.162v0.242l-0.728-0.081h-0.081l-0.727,0.162
		h-0.162c-0.162,0.323-0.404,0.485-0.566,0.485h-0.161l-0.162,0.081h-0.081c-0.242,0.162-0.484,0-0.808-0.161
		c-0.081-0.162-0.323-0.566-0.404-0.728c0,0,0.323-0.404,1.455-1.455v0.161c0.081-0.081,0.242-0.242,0.485-0.242
		c0.404-0.566,0.323-0.404,0.565-0.566l0.89-0.566v0.081l0.646-0.324c0.081-0.162,0.242-0.243,0.323-0.243
		c0.162-0.081,0.323-0.242,0.485-0.323c0.161-0.242,0.323-0.242,0.565-0.323c0.081,0,0-0.162,0.162-0.081V8.488
		c0,0,0.889-0.324,1.132-0.647l0.323,0.081c0.081-0.081,0.323-0.243,0.485-0.404h0.403c0.323-0.242,1.052-0.566,1.94-0.728
		c-0.161,0.081-0.161,0.162-0.161,0.243h0.484c0-0.081,0.081-0.485,0.728-0.485c0.081,0,0.162-0.081,0.404-0.081
		c0.162,0,0.404-0.162,0.809-0.646c0.162,0.161,0.404,0.323,0.485,0.404c0-0.081,0.081-0.162,0.161-0.162
		c1.132-1.051,4.204-1.94,5.174-1.94v0.081c0.162-0.162,0.323-0.323,0.566-0.404c0.323-0.323,1.051-0.646,1.697-0.728
		c0.242-0.081,0.728-0.081,1.132-0.162c0.081,0,1.617-0.485,2.102-0.808c0,0,0.404,0.808,0.404,1.132c0,0.161,0,0.323-0.161,0.484
		c-0.162,0.404-0.323,0.566-0.566,0.647c-0.08,0.081-0.404,0.162-0.484,0.162c-0.243,0.243-0.485,0.323-0.89,0.323h-0.485
		c-0.08,0.324-0.404,0.404-0.728,0.404c-0.161,0.162-0.242,0.162-0.323,0.243c-0.161,0.162-0.404,0.243-0.565,0.243
		c-0.162,0.242-0.323,0.404-0.809,0.404c-0.081,0-0.162,0.081-0.243,0.081h-0.08V6.144z M251.473,41.794h-0.242v0.162h-0.404
		l-0.565,0.323l-0.243-0.081v-0.161h-0.323c-0.081,0-0.081-0.081-0.162-0.081l-0.323,0.081c-0.08,0.161-0.161,0.242-0.323,0
		c0,0-0.161,0.484-0.484,0.161c-0.081,0.081-0.081,0-0.243,0c-0.081,0-0.081,0-0.323,0.162c0,0-0.242,0-0.404-0.081h-0.161
		c-0.243,0.242-0.404,0.242-0.971,0.485l-0.081-0.971l0.081-0.728l0.485-0.161c-0.081,0,0.081-0.243,0.565-0.243
		c0.243-0.243,0.404-0.162,0.566-0.243c0.081,0,0.081-0.081,0.242-0.081c0.081-0.081,0.162-0.081,0.243-0.161
		c0.161,0,0.242,0,0.323-0.081c0.081,0,0.161-0.081,0.323-0.081c0.242-0.242,0.484-0.323,1.051-0.485
		c0.081,0,0.162-0.081,0.162-0.081c0.242-0.243,0.404-0.243,0.565-0.243l0.161,0.081l0.324-0.323l0.323-0.081
		c0.161-0.242,0.323-0.242,0.565-0.323c0.162-0.081,0.323-0.081,0.566-0.081c0.242-0.242,0.565-0.323,0.809-0.323
		c0,0,0.161-0.081,0.242-0.162v-0.081h0.081c0.242-0.162,0.404-0.323,0.728-0.243l0.889-0.162h0.081c0,0,0.323-0.162,0.565-0.323
		h0.324c0.161-0.162,0.323-0.323,0.646-0.323h0.404c-0.162,0,1.617-0.566,2.344-0.809c0,0-0.08,0.081-0.08,0.162h0.97
		c0,0-0.081,0,0.081-0.162c0.323,0,0.565-0.162,0.809-0.323v0.081c0.08-0.081,0.404-0.323,0.484-0.404
		c0.162,0.081,0.324,0.081,0.404,0.162c0.323,0,0.404,0,0.566,0.081c1.051-0.89,3.719-1.778,5.174-2.183
		c0.323-0.081,0.809-0.081,1.051-0.162c0.162,0.162,0,0.162,0.242,0.081c0.162-0.162,0.404-0.242,0.646-0.404
		c0.081-0.081,0.404-0.242,1.052-0.565c1.293-0.647,2.263-0.728,3.071-0.89c0.728-0.081,1.213-0.081,2.103-0.889
		c0,0,0.403,0.808,0.403,1.132c0,0.162-0.161,0.404-0.242,0.647c-0.323,0.485-0.484,0.565-0.809,0.646
		c-0.161,0-0.484,0.081-0.484,0.242l-0.323,0.081c-0.243,0.162-0.728,0.404-1.213,0.404c-0.081,0.162-0.243,0.162-0.485,0.162
		c-0.081,0.324-0.323,0.324-0.565,0.324h-0.081c-0.242,0.242-0.404,0.404-0.646,0.484c-0.162,0.162-0.324,0.162-0.485,0.162
		c-0.081,0.081-0.161,0.081-0.242,0.162c-0.081,0-0.404,0.162-0.647,0.162l-0.323,0.081h-0.323
		c-0.404,0.162-0.889,0.404-1.374,0.404l-0.162-0.162c-0.161,0.485-0.646,0.566-0.728,0.566c-0.161,0.081-0.323,0.243-0.484,0.243
		c-0.081,0-0.081,0.081-0.243,0.081c0.162,0.161,0.243,0.485-1.051,0.161c0,0,0,0.162-0.081,0.324h-0.242
		c-0.081,0.081-0.162,0.162-0.162,0.243l-0.484-0.081c-0.162,0.242-0.485,0.485-0.809,0.485c0.081,0-0.081,0.081-0.404,0.161
		c-0.081,0.081-0.242,0.162-0.323,0.243c-0.081,0.243-0.323,0.243-0.728-0.162h-0.566c0.162,0.081,0.243,0.243,0.243,0.243
		l-1.052,0.485c-0.161,0-0.242,0-0.403-0.081l0.081-0.161h-0.162l-0.809,0.565c-0.081,0-0.081,0.081-0.323,0.081h-0.162
		c-0.161,0.162-0.323,0.242-0.484,0.323h-0.89c-0.081,0.081-0.242,0.323-0.242,0.323h-0.323c0,0.081,0,0.081,0.08,0.162
		c-0.323,0-0.646,0-0.728,0.081l-0.323,0.081c-0.161,0-0.242,0.081-0.404,0.243H256c-0.161,0.161-0.323,0.161-0.565,0.161h-0.081
		c-0.081,0-0.081,0.081-0.081,0.162h-0.081v0.081h-0.646c-0.323,0.324-0.728,0.485-1.051,0.404l-0.162,0.081
		c-0.081,0.324-0.323,0.404-1.132,0.728v-0.081L251.473,41.794z M259.396,28.294h-0.242c-0.485,0.485-0.729,0.565-1.052,0.646
		l-0.242-0.162c-0.081,0.081-0.162,0.162-0.242,0.162c-0.081,0.243-0.081,0.485-0.081,0.566c-0.242,0-0.485,0-0.728-0.566
		c0,0,0,0.728-0.404,0.566l-0.081,0.162c-0.162,0.323-0.484,0.485-0.809,0.647c-0.161,0-0.161,0.081-0.323,0.162
		c-0.081,0.081-0.323,0.162-0.485,0.242h-0.323c-0.728,0.404-2.102,1.051-2.102,1.051V31.69H252.2
		c-0.08,0.081-0.484,0.161-0.646,0.242l-1.697-2.102l1.939-0.566c0-0.485,0.243-0.97,0.809-0.646l0.081-0.162l0.242-0.162h-0.081
		c0,0,0.162-0.323,0.485-0.404v-0.323h0.323c0-0.162,0.081-0.243,0.081-0.323c0.243,0,0.485,0.081,0.646,0
		c0.162-0.081,0.485-0.324,0.647-0.324h0.08c0-0.162,0.081-0.404,0.324-0.404l0.889-0.162c0.081-0.081,0.081-0.081,0.162-0.081
		l0.565-0.323l0.566-0.646l0.728-0.89l0.242-0.404c0.081-0.081,0.242-0.243,0.404-0.324c0-0.081-0.081-0.161-0.081-0.242
		c0.323-0.162,0.646-0.404,0.646-0.404l-0.08-0.728h0.242l0.485-0.566c0-0.081-0.081-0.081-0.081-0.162
		c0-0.242,0.081-0.646,0.404-1.051c-0.081-0.081-0.162-0.162-0.162-0.243c0,0,0.243-0.243,0.566-0.647v-1.617
		c0.081,0.162,0.161,0.162,0.242,0.162v-0.728c0,0,0.161-0.081,0.242-0.081c0.081-0.162,0.081-0.324,0.162-0.404v-0.566
		c-0.081-0.162-0.162-0.242-0.162-0.404l0.485-0.889l0.162-0.889v-0.566c0,0-0.081-0.081,0.161-0.243
		c0-0.081-0.081-0.162-0.242-0.485l0.242-0.243c0-0.081-0.081-0.162-0.081-0.242l0.081-0.647c0.081,0,0.081,0.162,0.162,0.243
		c0-0.081,0.081-0.728,0.081-1.051c-0.081-0.162-0.081-0.404-0.081-0.404l0.889-0.89l0.485,0.566l0.081-0.081
		c0,0.081,0.081,0.162,0.081,0.242l0.242,0.809c0,0.081-0.081,0.081-0.081,0.081v0.404c0,0.161,0.081,0.565,0.081,0.728
		c-0.081,0.161-0.081,0.485-0.081,0.565l-0.081,0.323c0.243,0.243,0.081,0.404,0.081,0.566c0,0.081,0.081,0.323,0.081,0.404
		c-0.162,0.161-0.162,0.242-0.162,0.323c0,0.162,0.081,0.404,0,0.404v0.728c0,0.323,0,1.051-0.161,1.617
		c0,0.081,0.081,0.081,0.081,0.162s-0.081,0.323-0.081,0.404l-0.081,0.646c-0.162,0.243-0.323,0.566-0.162,0.404v0.242
		c0,0.404-0.08,0.809-0.161,1.051c0,0.243,0,0.485-0.323,0.808c0,0.485-0.323,1.456-0.809,1.94l-0.809,1.455
		c-0.081,0.081-0.162,0.243-0.242,0.323c0.728-0.242,1.455-0.485,2.264-0.728c0,0.162,1.051-0.485,1.859-0.728v-0.081
		c1.131-0.809,1.939-0.97,2.91-1.132c0.484-0.162,0.889-0.081,1.616-0.485l1.213-0.404c1.374-0.081,2.506-0.162,4.042-0.485
		c0,0.566-3.314,2.183-3.396,2.102l0.323,0.162c-0.08,0-0.242,0.081-0.727,0.243c-0.404,0.162-1.133,0.323-1.698,0.323
		c-0.161,0.162-0.242,0.243-0.323,0.243s-0.081,0-0.162,0.081c-0.161,0.404-0.565,0.404-0.809,0.404c-0.161,0-0.08-0.081-0.242,0
		c-0.404,0.404-0.97,0.566-1.293,0.728c-0.162,0.081-0.324,0.081-0.324,0.081l-0.322,0.323c-0.081,0-0.162,0.081-0.162,0
		c-0.162,0.162-0.323,0.323-0.646,0.404h-0.404l-0.323,0.162c-0.081,0,0.08,0.081-0.162,0c-0.485,0.242-1.455,0.728-2.264,1.051
		h-0.404l-0.161,0.081h-0.081c-0.081,0.081-0.323,0.242-0.404,0.242l-0.081,0.081h-0.08v0.485c-0.243,0-0.485,0-0.729-0.081
		l-0.484,0.162v-0.243L259.396,28.294z M250.907,14.228h0.161c-0.081-0.081-0.161-0.162-0.161-0.323l0.242-0.243V12.53l0.646,0.162
		c0.485,0,0.485-0.323,0.485-0.889l1.374,0.647l0.162,1.293v1.213h-0.162c0.081,0.162,0.162,0.404-0.08,0.809
		c0,0.161,0.08,0.404,0.08,0.808c-0.161,0-0.161,0.404-0.161,0.404l-0.081,0.404c0.081,0.162,0.081,0.404,0.081,0.646l-0.243,0.162
		l-0.08,0.162l-0.081,0.889c0.485,0.647,0.646,1.94,0.646,2.506c0,0.243-0.081,0.404-0.161,0.566v0.404c0,0,0-0.081,0.08-0.081
		c0.243,0.485,0.243,0.809,0.243,1.132c-0.081,0.081-0.081,0.162-0.081,0.162v0.404c0,0.162,0.081,0.324,0.081,0.566l-0.162,0.243
		c0,0,0-0.081,0.97,0.404c0,0-1.455,0.485-1.697,0.485c-0.889,0-1.051-0.404-1.051-0.809c0-0.081-0.081,0.081,0-0.162
		c-0.162-0.081-0.162-0.162-0.162-0.323s0-0.404,0.243-0.647c-0.323-0.161-0.485-0.404-0.566-0.728l-0.161-0.404
		c0-0.161-0.162-0.242,0.08-0.485c0-0.081-0.08-0.162-0.08-0.243v-0.808c-0.162-0.243-0.081-0.566-0.081-0.566
		c-0.081-0.081-0.081-0.162-0.081-0.323h-0.162V20.21c-0.08-0.162-0.08-0.324-0.08-0.647c0-0.081-0.081,0,0-0.162
		c-0.162-0.162-0.323-0.566,0.08-1.051c0-0.081-0.08-0.162-0.161-0.324c-0.081-0.081-0.161-0.081-0.161-0.081l0.161-1.213
		c-0.081-0.162-0.081-0.323-0.161-0.646h0.161v-0.485h0.081c0-0.162,0-0.242,0.08-0.485h0.081v-0.081L250.907,14.228z
		 M265.862,63.784c0.081-0.162,0.081-0.243,0.162-0.404c0.081-0.081,0.162-0.162,0.242-0.323c0.081-0.162,0.162-0.243,0.404-0.89
		c0.162-0.242,0.242-0.485,0.485-0.728v-0.081c0.081-0.324,0.242-0.647,0.646-0.728v-0.565c0,0,0.081-0.081,0.081-0.162
		c0-0.161,0.081-0.404,0.323-0.565v-0.323c0,0,0-0.162,0.081-0.404h-0.809c-0.162,0-0.404,0.081-0.971,0l-0.242,0.242
		c-0.161,0-0.323,0.081-0.404,0.162l-0.404,0.081l-0.97,0.485c-0.404,0.243-0.809,0.323-1.051,0.323c-0.081,0-0.081,0.081-0.162,0
		c-0.161,0.081-0.242,0.081-0.404,0.081v0.081c-0.161,0.242,0.081,0.646-0.889,0.646c-0.162,0.081-0.485,0.404-0.485,0.404
		c-0.162,0-0.404,0.162-0.484-0.081l-0.162,0.162h-0.323c-0.081,0.081-0.081,0.081-0.404,0.565c-0.243,0-0.646,0.081-0.89,0.162
		c0,0.242-0.161,0.323-0.809,0.485h-0.08c-0.243,0.162-0.566,0.243-0.809,0.324c-0.081,0-0.242-0.081-0.323-0.081h-0.323
		c-0.162,0.162-0.243,0.162-0.485,0.162c-0.081,0-0.162,0.081-0.323,0.081c-0.485,0.081-1.698,0.485-2.102,0.566l0.889-2.264
		l0.566-0.485V60.55c0.08-0.081,0.08-0.081,0.08-0.243c0.485-0.485,0.809-0.889,1.132-1.374c0.404-0.646,0.971-1.374,1.698-1.698
		c0.404-0.485,0.889-0.97,1.051-1.132L259.8,55.7l0.161,0.161c0-0.081,0.162-0.242,0.162-0.323c0-0.404,0-0.404,0.485-0.565
		c0.161-0.243,0.404-0.566,0.727-0.728c0.243-0.243,0.566-0.485,0.89-0.646c0.323-0.97,1.132-1.779,1.94-2.425l0.809-1.293h0.728
		v-0.081c0,0,0.081-0.081,0.242-0.162c0-0.323,0.081-0.566,0.162-0.728l0.081-0.404l0.646-0.728l0.08-0.081
		c0.081,0,0.081-0.081,0.162-0.161v-0.323c0.485-0.081,0.323-0.162,0.404-0.243v-0.081l0.081-0.404v-0.081l-0.728-0.081
		l-0.162,0.162l-1.374,0.081c-0.081-0.081-0.081-0.162-0.081-0.162l-0.162-0.081c-0.646,0.162-1.131,0.404-1.374,0.646
		c-0.242,0-0.242,0-0.323-0.081c-0.646,0.243-1.94,0.566-2.425,0.728l-1.213,0.162c-0.081-0.081-0.081,0-0.081-0.081h-0.081
		c-0.161,0.081-0.565,0.243-0.889,0.404c-0.566,0.243-1.213,0.485-1.778,0.566c-0.162,0-0.324-0.081-0.485-0.162
		c0,0-0.081,0.081-0.162,0.081l-0.081,0.081c-0.161,0.081-0.322,0.161-0.403,0.323l-0.647-0.081
		c-0.808,0.404-0.97,0.485-1.051,0.485c-0.242,0.081-0.565,0.081-0.809,0c-0.161,0-0.404-0.081-0.565-0.081l-0.162-0.809l0.89-0.404
		c0.162-0.242,0.404-0.323,0.728-0.404c0.162-0.161,0.323-0.242,0.485-0.323h0.404c0,0,0.08,0,0.161-0.081
		c0.243-0.081,0.97-0.485,0.97-0.485v0.081h0.324c0.323-0.243,0.97-0.404,1.293-0.566l1.698-0.646v0.323
		c1.132-0.566,3.395-1.051,4.122-1.213c0.89-0.323,2.184-0.646,4.608-1.132c0,0,0.081-0.081,0.161-0.081
		c0.324-0.081,0.729-0.081,1.052-0.081c0.081-0.081,0.323-0.081,0.404-0.081l1.051-0.162l0.161,1.375
		c0,0.889-0.565,1.536-0.809,1.859v0.243c0,1.617-2.506,4.608-3.638,5.659c-0.565,1.131-1.132,1.616-1.778,2.102
		c-0.404,0.404-0.323-0.081-1.859,1.698c-0.323,0.243-0.484,0.566-0.646,0.728c-0.081,0.162-1.213,0.889-1.455,1.131l-1.536,1.456
		c0.809-0.404,3.153-1.617,3.638-1.859c0.566-0.404,1.375-0.647,2.021-0.728c0.404-0.324,0.728-0.404,1.213-0.485
		c0.242-0.081,0.646-0.162,0.97-0.243c0,0,0.161,0.162,0.242,0.162h0.323c0.081,0,0.162-0.081,0.323-0.081
		c0.404,0,0.89-0.242,1.375-0.162v0.162c0.242,0,0.404,0,0.565,0.081c0.081,0,0.242,0,0.242,0.081
		c0.324,0.081,1.133,0.404,1.375,0.485l-0.485,1.293c-0.242,0.404-0.323,0.889-0.485,1.455c-0.323,1.293-0.484,2.425-1.616,3.396
		v0.081c0,0-0.323,0.404-0.485,0.566v0.404c-0.809,0.809-1.536,1.617-1.697,2.748c-1.213,1.779-2.587,3.719-3.8,5.417
		c-0.565,0.646-0.89,1.212-1.374,1.859c0.161-0.081,0.404-0.081,0.728-0.081c0.484-0.646,1.778-1.051,3.071-1.617
		c0.324-0.161,0.647-0.242,1.051-0.242v-0.162c3.396-1.616,6.307-2.344,9.055-3.071c3.233-0.809,7.195-2.021,10.186-3.638
		c0,0-0.161,2.021-1.374,2.748c-0.565,0.485-3.314,1.697-4.284,1.697c-1.294,0.89-3.477,1.456-5.174,1.537
		c-0.242,0.242-0.566,0.404-0.971,0.404c-0.08,0-0.08,0.08-0.08,0.08c-0.243,0.162-0.324,0.242-0.647,0.242
		c-0.323,0.324-0.808,0.485-1.132,0.566c-0.242,0.081-0.646,0.162-0.646,0.162c-0.565,0.323-1.455,0.727-2.183,0.97
		c-0.485,0.161-1.536,0.485-2.183,0.728c-0.162,0.081-0.242,0.162-0.323,0.242l-0.485,0.242h-0.242l-0.646,0.324v-0.081
		l-0.324,0.161c-0.161,0.162-0.242,0.081-0.484,0.081c-0.242,0.243-0.566,0.404-0.89,0.485c-0.161,0.081-0.485,0.242-0.646,0.081
		c-0.97,0.485-1.859,0.89-2.749,1.293c-0.808,0.404-2.021,0.89-2.99,1.374l-1.213-0.161l1.536-2.587
		c0.08-0.242,0.242-0.566,0.484-0.889c0.081-0.162,0.243-0.404,0.323-0.485c0.081-0.243,0.647-1.132,1.132-1.455l0.162-0.566
		c0.161-0.323,0.404-0.565,0.565-0.728c0.081-0.08,0.243-0.242,0.404-0.565c0.728-0.485,0.728-0.89,1.375-1.617
		c0.08-0.242,0.161-0.565,0.242-0.728s0.404-0.566,0.97-0.809c0,0.081,0.162-0.242,0.243-0.404v-0.404
		c0-0.08,0.484-0.565,0.323-0.484c0.161-0.404,0.242-0.566,0.646-0.971c0.081-0.08,0.323-0.323,0.404-0.484
		c0,0.08,0.323-0.566,0.404-0.809c0.161-0.243,0.323-0.485,0.485-0.485v-0.081L265.862,63.784z"/>
	<path fill="#FFFFFF" d="M284.739,36.783c-0.89-0.243-1.294-1.132-1.213-1.375l-0.484-0.485l-0.081-1.536l-0.404-0.404l0.161-0.728
		v-0.97l0.081-0.647l0.162-0.647c0.161-0.404,0.242-0.728,0.404-1.051h0.08l0.404-1.212c0-0.485,0.243-1.132,0.566-1.536
		c0.161-0.485,0.565-0.323,0.646-0.243l-0.161-1.132l0.646-0.808l0.484-0.081v-0.485l0.324,0.323l0.484-0.566V22.07
		c-0.242-0.566-0.484-1.213-0.809-1.698c-0.242-0.323-0.484-0.565-0.889-0.646c-0.566-0.081,0.404-1.293,0.97-1.536
		c0.647,0,0.97,0.243,1.213,0.566l0.323,0.728l0.566,0.404c0.484,0.485,0.727,1.132,0.727,1.859l0.566-0.162
		c0.646,0.081,1.132,0.323,1.132,0.323h1.294l0.889,0.243v0.243l0.97,0.808l-1.051,0.647l-0.646,0.081l-0.404,0.161h-0.081
		l-0.484-0.404c-0.485,0.162-0.89,0.404-1.213,0.566l0.162,0.161l0.161,0.566l0.242,1.051c0.323,1.293,0.162,1.859-0.323,3.233
		l0.485,1.698l0.161,0.728l-0.403,0.728v0.161l0.161,1.375l-0.161,0.243l-0.162,0.485l-0.081,0.809
		c-0.323,0.485-0.484,0.808-0.646,1.051l-0.404,0.324c-0.081,0.242-0.242,0.323-1.132,0.808h-0.323l-0.162,0.081h-1.212
		l-1.132-0.646L284.739,36.783z M288.296,26.758c-0.242-0.242-0.242-0.566-0.323-0.97l-0.161-0.081v0.242l-0.485,0.809
		c-0.162,0.162-0.323,0.485-0.565,0.889l-0.324,0.809l-0.242,0.323l-0.081,0.485l-0.646,1.859l0.161,0.404l-0.323,0.566
		c0.081,0.243,0,0.647-0.161,1.375l0.404,0.404c0.404,0.565,0.484,0.97,1.213,1.374h0.242l0.889-0.242l0.081-0.404v-0.566
		c0.081-0.485,0.162-1.051,0.243-1.778c0.08-0.728,0.08-1.132,0.08-1.536c0-0.808-0.08-1.455-0.161-2.021L288.296,26.758z
		 M296.623,52.87c-0.243,0-0.809-0.081-0.404-1.697l-0.081-0.646l-0.081-0.485v-0.809l0.566-1.132l0.728-0.485l-0.081-0.081
		l0.242-0.647v-0.323l0.647,0.162l0.728,0.081v0.565h0.08v0.97h-0.08l-0.081,1.051l0.081,2.102v0.323l0.08,0.323h-0.08l0.161,0.243
		l-0.081,1.536l-0.242,0.889c0,0.243,0.485,0.646,0.081,1.375c0.161,0.081,0.242,0.404,0.404,0.728
		c0.161,0.808,0.404,1.617,0.404,2.425l0.404,0.889l0.242,0.889c0.97,1.455-0.89,2.021-0.971,1.94c-0.808,0-0.646-0.323-1.374-1.455
		h0.162v-0.162l-0.809-2.749l-0.485-1.536l-0.242-0.89c-0.485-0.809-0.485-1.051-0.404-1.132l0.081-0.161l0.323-1.375l-0.162-0.404
		h0.081L296.623,52.87z M310.689,56.346l0.161-0.162l-0.484-0.647v-0.97l0.242,0.081l-0.081-0.566l0.162-0.646v-0.728l-0.243-0.243
		l-0.323-0.728c-0.081-0.162,0.081-0.647,0.485-1.212l-0.485-1.132l-0.081-0.728l0.404-0.728l0.081-0.081
		c-0.081-0.646-0.404-1.293-0.161-1.617v-0.485l0.161-0.889l-0.081-0.97c-0.08-0.646-0.889-0.889,0.081-1.698l0.162-0.808h-0.081
		c-0.081-0.728-0.081-0.728,0.404-1.617c1.213,0.404,1.293,2.667,1.293,3.557v0.97l0.243,2.749c0.242,0.97,0.161,1.536,0.161,2.506
		c0.081,0.89,0.323,1.132,0.242,1.698c0,1.374,0,1.616,0.162,2.102c0,0.162,0,0.889-0.081,1.051
		c0.647,0.323,1.052,0.081,1.455-0.081c0.404-0.162,0.89-0.324,1.294-0.485c0.809-0.324,1.455-0.566,2.183-0.809
		c0.485-0.162,0.89-0.323,1.294-0.485c0.646-0.242,1.293-0.404,1.939-0.646l1.213-0.485l0.646-0.323
		c0.646-0.323,1.294-0.646,1.859-1.051c0.485-0.323,0.89-0.646,1.294-1.051c-0.243,0.323-0.243,0.809-0.323,1.293
		c-0.081,0.566-0.243,1.213-0.647,1.536c-0.323,0.404-1.051,0.809-1.778,1.051c-0.162,0.081-1.455,0.404-1.374,0.485l-0.162,0.162
		l-0.404,0.081c-0.403,0.162-0.889,0.485-1.374,0.646c-0.404,0.162-0.809,0.243-1.132,0.324l-0.485,0.161l-0.97,0.485
		c-0.242,0.485-0.646,0.485-0.89,0.566c-0.889,0.323-1.212,0.566-1.535,0.808c-0.404,0.324-1.051,0.728-2.345,1.698
		c0.646,0,0.646,0.404,0.646,0.485l-0.242,1.536c0.242,2.021,0.242,2.345,0.161,2.668l0.081,1.698v0.97l-0.081,1.051v0.809
		c-0.08,0.485-0.08,0.97-0.161,1.455c-0.162,0.89-0.485,1.859-0.728,2.667c-0.162,0.647-0.404,1.294-0.566,1.859
		c-0.08,0.485-0.484,1.052-0.808,1.455c-0.162,0.162-0.323,0.404-0.566,0.566c-0.809,0.971-1.051,1.051-1.132,1.132
		c-0.323,0.323-0.728,0.565-1.132,0.485l-0.081-0.081l-0.565,0.161c-0.809,0.081-1.617-0.08-2.425-0.484
		c-0.566-0.242-1.052-0.566-1.375-1.051c-0.242-0.404-0.404-0.809-0.404-1.051l-0.484-0.566v-1.374
		c-0.485-0.647-0.646-1.455-0.809-2.183l-0.081-0.729c-0.081-0.889-0.081-1.616-0.081-2.263V67.34c0-0.404,0-0.728,0.081-1.132
		c0.162-0.889,0.404-1.778,0.646-2.344l0.162-0.566l0.081-0.404c0,0,0.97-1.293,1.859-1.94c-0.243,0.081,0.08-0.243,0.484-0.647
		c0.324-0.323,0.566-0.646,0.971-0.97c0.484-0.404,0.97-0.809,1.616-1.213c0.404-0.242,0.89-0.485,1.375-0.728
		c0.08-0.081,0.323-0.242,0.565-0.404C310.285,56.588,310.366,56.588,310.689,56.346z M311.013,59.984
		c-0.162-0.485-0.162-1.051-0.162-1.374l-1.697,1.374l-0.971,0.728l-0.727,0.485l-0.404,0.404l-0.647,0.565L306,62.571l-1.051,1.698
		l-0.161,0.243c-0.081,1.051-0.162,1.374-0.162,1.778l-0.485,0.161v0.082c0.081,0.161,0.243,0.08,0.323,0.889v0.889
		c0.081,1.133,0.162,1.375,0.081,1.617l0.081,0.162l0.162,0.565l0.161,0.97v0.647l1.213,1.94l0.646,0.404h0.162l0.404,0.161
		l1.293-0.809c0.728-1.132,1.213-2.102,1.294-2.021v-1.213h0.242v-0.323l0.081-0.162c-0.243-0.323-0.162-0.485-0.081-0.808
		l0.081-0.485l0.161-0.485l-0.08-0.081l0.161-0.808v-0.647c0.081-0.485,0.081-0.728,0.081-0.889l0.081-1.779l0.081-2.264v-0.323
		l-0.081-0.566V60.55l0.161-0.323L311.013,59.984z M319.097,24.495l-0.162,0.728c-0.565,1.375-0.728,1.617-0.809,1.778l-0.727,1.456
		c0,0.323-0.324,0.566-0.89,0.97c-0.242,0.97,0.081,0.889-0.242,1.212c-0.081,0.243-0.081,0.566-1.052,1.051l0.324,0.728
		l-0.729,0.485v0.485l-0.646,0.404v0.485c-0.484,0.484-1.859,0.323-0.97,0.404l-0.323,0.324l0.242,0.646
		c-1.132,1.132-1.536,1.617-1.778,1.94l-1.536,1.051l-0.565-1.455l0.08,0.081c-0.484-0.97-0.646-1.455-0.484-1.617
		c-0.323,0-0.647,0.081-0.243-0.243l-0.484-0.97c0.08-1.536-0.162-2.829-0.162-2.506l-0.081-1.213l-0.081-0.565l0.243-0.081
		l-0.485-0.323v-1.94l-0.242-1.859v-0.404l0.081-0.485l-0.081-1.375c0-0.323,0-0.242,0.242-1.536l-0.161-0.404h0.242v-0.485
		l0.242-0.081v-0.242l0.081-1.455l0.081-1.051l0.081-0.728c0.565-1.859,1.051-2.425,1.535-2.183l0.324,1.698
		c-0.081,0.323,0,1.536-0.081,1.617h0.081c-0.081,0.404,0.08,0.808-0.324,1.132l0.162,2.021c0.081,0.404,0.162,0.889,0.162,1.455
		v1.293c0.161,1.455-0.162,1.859-0.162,2.102c0.566,0.728,0.728,1.132,0.404,1.455c0.081,0.162,0.162,0.404,0.242,0.728
		c0.162,0.889,0.162,1.536,0.081,1.778c0.162,0.404,0.162,0.728,0.243,1.051c0.08,1.213,0.242,1.859,0.565,2.426
		c0.081-0.566,0.323-1.132,0.728-1.779c0.566-0.97,0.889-1.698,1.293-2.264c0.162-0.243,0.324-0.485,0.485-0.647l0.97-1.293h-0.161
		c0.646-1.132,0.646-1.213,0.728-1.375l0.404-0.728l0.242-0.728c0.566-1.293,0.809-1.94,1.294-2.344l0.081-0.89l0.565-0.646
		c0.081-0.97,0.161-1.293,0.323-1.617c0.162-0.485,0.323-1.051,0.485-1.617c0.323-0.647,0.565-1.455,0.889-2.264
		s0.566-1.536,0.89-2.183l0.566-1.132l1.051-2.264l0.404-0.97l0.484,2.344l0.404,1.779l0.242,1.132
		c0.162,0.728,0.324,1.455,0.404,2.263l0.081,0.728c0.081,0.566,0.081,1.132,0.081,1.698c0,0.485-0.162,1.455-0.242,2.021v0.162
		c0.161,0.081,0.161,1.455,0.161,2.344v0.566c0.162,0.323,0.162,0.889,0.162,1.374c0,0.728-0.162,1.375-0.243,1.859
		c-0.08,0.485-0.08,1.051-0.161,1.536l-0.081,1.213c0,1.293,0.162,1.536,0.242,1.94c-0.08,0.243-0.242,0.808-0.161,0.97v0.404
		c0,0.485,0.081,0.97,0.161,1.455c0.162,0.565,0.324,1.051,0.566,1.617c-0.89,0-1.859-0.162-2.021-1.132
		c-0.404-0.404-0.484-0.97-0.565-1.617c-0.081-0.081-0.081-0.404-0.243-0.566c-0.242-1.212,0-1.779-0.161-2.749
		c0.081,0.081,0.081-0.97,0.242-1.778l-0.161-0.971l0.161-0.565c-0.242-0.485-0.323-0.89-0.242-2.021l-0.081-2.102l0.081-0.243
		v-0.728c0.081-0.808,0.161-1.051,0.161-1.375c0-1.374-0.08-1.859-0.08-2.425l0.08-0.243l-0.08-0.323l-0.728,0.647l-0.485,1.778
		l-0.081,0.889h-0.242l-0.081,0.889c0,0-0.162,0.566-0.404,1.132L319.097,24.495z"/>
	<path fill="#FFFFFF" d="M328.749,71.544c0.728-1.213,1.051-1.455,1.455-1.697c-0.081-0.647,0.323-0.404,0.889-1.133
		c-0.404-0.161-0.404-0.565,0.324-0.97l0.08-0.565v-0.404c0.162-0.324,0.324-0.081,0.324-0.89l0.322-0.242l0.081-0.243
		c0.081-1.131,0.162-1.536,0.404-1.616l-0.728-0.566c-1.374-0.242-1.536-0.242-2.264-0.808c-0.161-0.081-0.323-0.243-0.484-0.485
		l-0.404-0.323l-0.485-0.404l-0.242-0.323h0.161V60.55l-0.484-1.455c0.161-1.051,0.646-1.293,1.778-1.859l0.97,0.243
		c0.485-0.081,0.89,0,1.294,0.162c0.728,0.081,0.889,0.323,0.889,0.647l1.536,0.485l0.89,0.485l-0.323,1.051l-0.081,0.728
		l-0.162,0.485l-0.161,0.242c0.484,0.971,0.404,1.698,0.404,2.345c0,0.566-0.081,1.213-0.162,1.697
		c-0.081-0.08-0.162,0.162-0.242,0.404l-0.243,0.89c-0.081,0.161-0.161,0.323-0.404,0.728l-0.565,1.293
		c-0.162,0.566-0.323,0.89-0.646,1.213c-0.404,0.404-0.646,0.566-0.89,0.89l-1.051,0.97l-0.565,0.485
		c-0.081,0.081-0.485,0.565-0.647,0.728c0,0-0.889-1.132-0.646-1.536L328.749,71.544z M332.629,61.358v-0.566l-0.323-0.243
		c-0.728-0.647-0.404-0.808-1.213-0.889l-0.323-0.323c-0.646-0.162-1.051-0.081-1.051,0l0.243,0.646l0.646,0.566l0.404,0.566
		l0.889,0.323L332.629,61.358z"/>
	<path fill="#FFFFFF" d="M373.534,44.381l-0.728,0.728l-0.647,0.243l-1.131,0.808l-0.162,0.162l-0.404,0.243l-0.485,0.162h-0.161
		l-0.323,0.323h-0.243l-0.404,0.485l-0.484,0.081l-0.728,0.485l-0.404,0.404h-0.647l-0.08,0.404l-0.485,0.323l-0.161,0.081
		l-0.485,0.323l-0.081,0.081l-0.081-0.243l-0.323,0.081l-1.213-0.081c-0.404,0-0.889-0.404-0.565-1.617l0.242,0.162l0.566-0.566
		h0.081c0.161-0.242,0.242-0.323,0.646-0.485l0.484-0.161l0.566-0.809h0.566l0.161-0.646h0.404l0.646-0.404l1.698-0.809
		c0.161-0.243,0.484-0.323,0.728-0.404l0.484-0.162l0.404,0.081c0.162-0.242,0.404-0.485,0.728-0.728
		c0.89-0.646,2.102-1.132,2.83-1.293c0.808-0.404,1.293-0.404,1.616-0.485l0.485-0.162l1.374-0.162l-0.323-0.728l0.728-0.081v-0.081
		l0.242-2.425l0.162-0.566c0-0.485,0-1.212,0.404-2.102l-0.081-0.081l0.162-0.808V33.63l0.242-0.324l0.485-2.829h-0.081
		c0.323-0.728,0.404-1.132,0.485-1.455l0.161-0.809v-0.728l0.081-0.323v-1.051l-0.081-1.617l-0.323-0.646v-0.081
		c-0.565,0.404-1.051,0.485-1.536,0.566h-0.484l-2.345,0.404l-1.213,0.566l-1.051,0.162v0.162h-0.646l-1.536,0.323
		c-0.485,0-1.94,0.404-2.102,0.728l-0.89,0.243c-1.455,0.485-1.698,0.647-2.021,0.647l-0.89,0.323l-0.081-1.051
		c0-0.162,0.081-0.809,0.081-0.89h0.242c1.051-0.485,1.374-0.889,2.021-0.889c0.242-0.162,0.484-0.162,0.808-0.243
		c0.647-0.404,1.536-0.728,1.779-0.808c0.809-0.404,1.293-0.566,2.344-0.647c0.89-0.728,1.375-0.646,2.021-0.889
		c0.97-0.323,1.213-0.485,1.536-0.566c0.808-0.162,1.374-0.323,1.859-0.404c0.404-0.161,0.889-0.161,1.212-0.323
		c0.081,0.081,0.404,0.081,0.729-0.081l0.323-0.081h0.403l2.103-0.162v1.132l0.242,1.293l0.323,0.808l-0.08,0.566v0.565
		c0.08,1.051,0.08,1.294,0,1.536l-0.243,1.132c-0.485,2.425-0.485,2.829-0.565,2.991c0.404,0.485,0,0.485-0.243,0.809l0.081,0.081
		l-0.404,1.94c0.081-0.081,0,0.323-0.08,0.647c-0.162,0.889-0.324,1.698-0.729,2.021l-0.323,1.051c0,1.698-0.081,2.425-0.161,3.072
		c0,0.323,0,0.728-0.081,1.051l-0.242,1.455l-0.243,1.94c-0.08,0.323-0.08,0.565-0.161,0.889c-0.081,0.646-0.243,1.293-0.404,2.021
		c-0.081,0.485-0.243,1.051-0.323,1.536l-0.081,0.646c-0.081,0.485-0.081,1.132-0.081,1.455v0.243c0,0.97,0,1.617-0.081,2.102
		c-0.081,0.485-0.242,0.889-0.323,1.374c0,0.242-0.161,0.889-0.242,1.536v0.889c-0.323,3.395-0.89,2.102-2.345,2.587
		c0.404-0.243,0.243-1.375,0.566-1.536c-0.243,0-0.404-0.323-0.323-0.97c0-0.081,0.08-0.485,0.161-0.97l0.243-1.375
		c-0.162-2.102-0.162-2.425-0.081-2.667l0.161-2.91c0-0.162,0.081-0.728,0.081-0.89l0.242,0.081v-0.809
		c0.081-0.566,0.162-1.213,0.323-1.617l0.243-0.728v-0.243l0.081-0.566l0.08-0.081l0.081-0.162l-0.565-1.778l-0.728,0.081
		c-0.081,0.404-0.081,0.565-0.404,0.485l-1.374,0.404h-0.081l-0.485,0.162L373.534,44.381z M402.476,32.66
		c-0.404,0.485-0.89,0.97-1.779,0.97c-0.242,0.404-0.889,0.808-1.455,0.97l-0.404,0.323l-1.213,0.646l-1.374,0.243l-0.242,0.081
		v0.081l-0.323,0.404c-0.485,0.404-0.728,0.323-0.89,0.162c0.162,0.324-0.161,0.404-0.485,0.404l-1.293,0.485l-0.566,0.243
		l-0.403,0.162h-0.89l-1.051,0.323l-1.213,0.647c-0.404-0.162-1.374,0.728-1.293,0.647l-0.89,0.081l-0.565,0.566l-0.081-0.081
		l-0.728-0.485c-0.162-0.728,0-0.889,0.242-1.051l0.566-0.404c0.08-0.081,0.484-0.485,1.293-0.889
		c0.323-0.162,0.566-0.243,0.971-0.323c0.565-0.485,1.778-1.051,1.697-0.809c0.728-0.647,1.536-0.89,2.91-0.809
		c0.323-0.889,0.646-0.97,0.97-0.97l1.536-0.89c0.728-0.323,1.213-0.404,1.779-0.646c0.727-0.485,1.131-0.647,1.535-0.89
		l0.971-0.404l0.484-0.404l0.404-0.243l0.728-0.404l0.323-0.485c0.566-0.243,0.971-0.566,0.809-0.485l0.809-1.294l0.081-0.808
		v-2.183l0.161-0.566c0-0.566,0.081-1.536,0.809-1.778h-0.323l0.242-0.728l0.404-0.728l0.647-1.132l1.697,0.242l0.646,0.323
		l0.242,0.809c0.485,2.183,0.404,3.638,0.243,4.204l-0.565,1.375l-0.485,0.97c-0.162,0.324-0.243,0.89-0.243,1.051
		c-0.565,0.323-0.808,0.566-0.728,0.566l-0.242,1.132c0,0.404,0.081,0.809,0.081,1.132c0,0.242-0.081,0.485-0.081,0.728v0.808
		l-0.081,1.536c0,0.243,0,0.566-0.08,0.808c-0.324,1.455-0.566,2.668-0.647,2.911c0.162,1.051,0.162,1.375,0.081,1.778
		c0.081,1.293,0.081,2.021,0,2.668l-0.081,0.404c-0.161,0.971-0.161,1.455-0.242,1.859l-0.081,1.375l0.081,2.021
		c-0.243,0.728,0,1.374-0.162,1.859l0.081,0.485c0,0.728,0,1.132,0.485,2.425c-0.89-0.081-1.455-0.323-1.778-0.889l-0.162-0.404
		c-0.242-0.647-0.485-1.536-0.646-2.103l-0.081-0.484c-0.081-2.345-0.242-3.396,0-4.608l-0.081-0.728l0.162-0.646v-0.485l0.08-1.132
		c0.081-0.646,0.081-1.051,0.081-1.374l-0.081-0.485l-0.08-0.242l0.161-0.485c0-0.242-0.161-0.565,0.243-0.889
		c0-0.889,0-1.293,0.08-1.778c0.081-0.404,0.081-0.809,0.243-1.132l0.161-0.808l-0.08-0.081l0.08-0.162v-0.646l0.162-0.485v-0.243
		l-0.162-1.374c-0.565,0.404-0.889,0.889-0.97,0.565L402.476,32.66z M405.547,26.92l0.404-0.889
		c0.162-0.081,0.323-2.021,0.404-2.264l-0.242-0.889l-0.243,0.889l-0.161,1.698L405.547,26.92z"/>
	<path fill="#FFFFFF" d="M427.973,6.144c-0.243,0.242-0.485,0.323-0.566,0.323s-0.242,0-0.323,0.081c-0.323-0.081-0.323,0-0.404,0
		c-0.162,0.081-0.323,0.161-0.484,0.081c-0.243,0.323-0.243,0.404-0.647,0.404v0.323h-0.97l-0.646,0.323
		c-0.081,0.162-0.162,0.243-0.243,0.404h-0.646c-0.162,0.162-0.565,0.485-0.565,0.485h-0.324c-0.08,0.081-0.161,0.162-0.323,0.162
		c-0.161,0.161-0.323,0.161-0.565,0.081c-0.162,0.162-0.404,0.243-0.728,0.404V9.054c-0.081,0.081-0.081,0.162-0.162,0.323
		c-0.242,0-0.404,0-0.565,0.162V9.62h-0.162c-0.081,0.162-0.323,0.323-0.565,0.162c-0.081,0.081-0.243,0-0.566,0l-0.161,0.081
		c0.08,0.081,0.161,0.161,0.161,0.242h-0.485l-0.242,0.323c-0.081,0-0.323,0.081-0.404,0.081h-0.161
		c-0.162,0.081-0.243,0.162-0.404,0.162c-0.081,0.162-0.323,0.324-0.647,0.324c-0.161,0.161-0.322,0.323-0.484,0.404l-0.485,0.162
		c0,0-0.081,0-0.081-0.081c-0.08,0.162-0.242,0.243-0.323,0.324l-0.081-0.162c-0.161,0.162-0.242,0.242-0.565,0.162
		c0,0,0,0.081-0.081,0.081l-0.565,0.566h-0.162v0.242l-0.728-0.081h-0.081l-0.728,0.162h-0.161
		c-0.162,0.323-0.404,0.485-0.566,0.485h-0.161l-0.162,0.081h-0.08c-0.243,0.162-0.485,0-0.809-0.161
		c-0.081-0.162-0.324-0.566-0.404-0.728c0,0,0.323-0.404,1.455-1.455v0.161c0.08-0.081,0.242-0.242,0.484-0.242
		c0.404-0.566,0.324-0.404,0.566-0.566l0.889-0.566v0.081l0.647-0.324c0.081-0.162,0.242-0.243,0.323-0.243
		c0.162-0.081,0.323-0.242,0.485-0.323c0.161-0.242,0.323-0.242,0.565-0.323c0.081,0,0-0.162,0.162-0.081V8.488
		c0,0,0.889-0.324,1.131-0.647l0.324,0.081c0.08-0.081,0.323-0.243,0.484-0.404h0.404c0.323-0.242,1.051-0.566,1.94-0.728
		c-0.161,0.081-0.161,0.162-0.161,0.243h0.484c0-0.081,0.081-0.485,0.728-0.485c0.081,0,0.162-0.081,0.404-0.081
		c0.162,0,0.404-0.162,0.809-0.646c0.161,0.161,0.404,0.323,0.485,0.404c0-0.081,0.08-0.162,0.161-0.162
		c1.132-1.051,4.204-1.94,5.174-1.94v0.081c0.162-0.162,0.323-0.323,0.566-0.404c0.323-0.323,1.051-0.646,1.697-0.728
		c0.242-0.081,0.728-0.081,1.132-0.162c0.081,0,1.617-0.485,2.102-0.808c0,0,0.404,0.808,0.404,1.132c0,0.161,0,0.323-0.161,0.484
		c-0.162,0.404-0.323,0.566-0.566,0.647c-0.081,0.081-0.404,0.162-0.485,0.162c-0.242,0.243-0.484,0.323-0.889,0.323h-0.485
		c-0.081,0.324-0.404,0.404-0.728,0.404c-0.161,0.162-0.242,0.162-0.323,0.243c-0.161,0.162-0.404,0.243-0.565,0.243
		c-0.162,0.242-0.324,0.404-0.809,0.404c-0.081,0-0.162,0.081-0.243,0.081h-0.08V6.144z M416.331,41.794h-0.242v0.162h-0.404
		l-0.566,0.323l-0.242-0.081v-0.161h-0.323c-0.081,0-0.081-0.081-0.162-0.081l-0.323,0.081c-0.08,0.161-0.161,0.242-0.323,0
		c0,0-0.161,0.484-0.485,0.161c-0.08,0.081-0.08,0-0.242,0c-0.081,0-0.081,0-0.323,0.162c0,0-0.242,0-0.404-0.081h-0.161
		c-0.243,0.242-0.404,0.242-0.971,0.485l-0.081-0.971l0.081-0.728l0.485-0.161c-0.081,0,0.081-0.243,0.565-0.243
		c0.243-0.243,0.404-0.162,0.566-0.243c0.08,0,0.08-0.081,0.242-0.081c0.081-0.081,0.162-0.081,0.242-0.161
		c0.162,0,0.243,0,0.324-0.081c0.08,0,0.161-0.081,0.323-0.081c0.242-0.242,0.484-0.323,1.051-0.485
		c0.081,0,0.161-0.081,0.161-0.081c0.243-0.243,0.404-0.243,0.566-0.243l0.162,0.081l0.322-0.323l0.324-0.081
		c0.161-0.242,0.323-0.242,0.565-0.323c0.162-0.081,0.323-0.081,0.566-0.081c0.242-0.242,0.565-0.323,0.808-0.323
		c0,0,0.162-0.081,0.243-0.162v-0.081h0.081c0.242-0.162,0.404-0.323,0.728-0.243l0.889-0.162h0.081c0,0,0.323-0.162,0.566-0.323
		h0.322c0.162-0.162,0.324-0.323,0.647-0.323h0.404c-0.162,0,1.616-0.566,2.344-0.809c0,0-0.08,0.081-0.08,0.162h0.97
		c0,0-0.081,0,0.081-0.162c0.323,0,0.565-0.162,0.808-0.323v0.081c0.081-0.081,0.404-0.323,0.485-0.404
		c0.162,0.081,0.323,0.081,0.404,0.162c0.323,0,0.404,0,0.566,0.081c1.051-0.89,3.718-1.778,5.174-2.183
		c0.323-0.081,0.808-0.081,1.051-0.162c0.161,0.162,0,0.162,0.242,0.081c0.162-0.162,0.404-0.242,0.646-0.404
		c0.081-0.081,0.404-0.242,1.052-0.565c1.293-0.647,2.263-0.728,3.071-0.89c0.728-0.081,1.213-0.081,2.103-0.889
		c0,0,0.404,0.808,0.404,1.132c0,0.162-0.162,0.404-0.243,0.647c-0.323,0.485-0.485,0.565-0.809,0.646
		c-0.161,0-0.484,0.081-0.484,0.242l-0.323,0.081c-0.243,0.162-0.729,0.404-1.213,0.404c-0.081,0.162-0.243,0.162-0.485,0.162
		c-0.081,0.324-0.323,0.324-0.565,0.324h-0.081c-0.243,0.242-0.404,0.404-0.647,0.484c-0.161,0.162-0.322,0.162-0.484,0.162
		c-0.081,0.081-0.162,0.081-0.242,0.162c-0.081,0-0.404,0.162-0.647,0.162l-0.323,0.081h-0.323c-0.404,0.162-0.89,0.404-1.374,0.404
		l-0.162-0.162c-0.161,0.485-0.646,0.566-0.728,0.566c-0.161,0.081-0.323,0.243-0.485,0.243c-0.08,0-0.08,0.081-0.242,0.081
		c0.162,0.161,0.242,0.485-1.051,0.161c0,0,0,0.162-0.081,0.324h-0.242c-0.081,0.081-0.162,0.162-0.162,0.243l-0.484-0.081
		c-0.162,0.242-0.485,0.485-0.809,0.485c0.081,0-0.081,0.081-0.404,0.161c-0.081,0.081-0.243,0.162-0.323,0.243
		c-0.081,0.243-0.323,0.243-0.728-0.162h-0.566c0.162,0.081,0.243,0.243,0.243,0.243l-1.051,0.485c-0.162,0-0.243,0-0.404-0.081
		l0.08-0.161h-0.161l-0.809,0.565c-0.081,0-0.081,0.081-0.323,0.081h-0.162c-0.161,0.162-0.323,0.242-0.484,0.323h-0.89
		c-0.081,0.081-0.242,0.323-0.242,0.323h-0.323c0,0.081,0,0.081,0.08,0.162c-0.323,0-0.646,0-0.728,0.081l-0.323,0.081
		c-0.162,0-0.242,0.081-0.404,0.243h-0.242c-0.162,0.161-0.323,0.161-0.566,0.161h-0.08c-0.081,0-0.081,0.081-0.081,0.162h-0.081
		v0.081h-0.646c-0.323,0.324-0.728,0.485-1.051,0.404l-0.162,0.081c-0.081,0.324-0.323,0.404-1.132,0.728v-0.081L416.331,41.794z
		 M424.254,28.294h-0.243c-0.484,0.485-0.728,0.565-1.051,0.646l-0.242-0.162c-0.081,0.081-0.162,0.162-0.242,0.162
		c-0.081,0.243-0.081,0.485-0.081,0.566c-0.243,0-0.485,0-0.728-0.566c0,0,0,0.728-0.404,0.566l-0.081,0.162
		c-0.161,0.323-0.485,0.485-0.809,0.647c-0.161,0-0.161,0.081-0.323,0.162c-0.081,0.081-0.323,0.162-0.485,0.242h-0.323
		c-0.728,0.404-2.102,1.051-2.102,1.051V31.69h-0.081c-0.081,0.081-0.485,0.161-0.646,0.242l-1.698-2.102l1.94-0.566
		c0-0.485,0.243-0.97,0.809-0.646l0.081-0.162l0.242-0.162h-0.081c0,0,0.162-0.323,0.485-0.404v-0.323h0.323
		c0-0.162,0.081-0.243,0.081-0.323c0.242,0,0.485,0.081,0.646,0c0.162-0.081,0.485-0.324,0.646-0.324h0.081
		c0-0.162,0.081-0.404,0.323-0.404l0.89-0.162c0.081-0.081,0.081-0.081,0.161-0.081l0.566-0.323l0.566-0.646l0.727-0.89l0.243-0.404
		c0.081-0.081,0.242-0.243,0.404-0.324c0-0.081-0.081-0.161-0.081-0.242c0.323-0.162,0.646-0.404,0.646-0.404l-0.08-0.728h0.242
		l0.484-0.566c0-0.081-0.08-0.081-0.08-0.162c0-0.242,0.08-0.646,0.404-1.051c-0.081-0.081-0.162-0.162-0.162-0.243
		c0,0,0.242-0.243,0.566-0.647v-1.617c0.08,0.162,0.161,0.162,0.242,0.162v-0.728c0,0,0.162-0.081,0.242-0.081
		c0.081-0.162,0.081-0.324,0.162-0.404v-0.566c-0.081-0.162-0.162-0.242-0.162-0.404l0.485-0.889l0.161-0.889v-0.566
		c0,0-0.08-0.081,0.162-0.243c0-0.081-0.081-0.162-0.242-0.485l0.242-0.243c0-0.081-0.081-0.162-0.081-0.242l0.081-0.647
		c0.081,0,0.081,0.162,0.162,0.243c0-0.081,0.08-0.728,0.08-1.051c-0.08-0.162-0.08-0.404-0.08-0.404l0.889-0.89l0.485,0.566
		l0.081-0.081c0,0.081,0.08,0.162,0.08,0.242l0.243,0.809c0,0.081-0.081,0.081-0.081,0.081v0.404c0,0.161,0.081,0.565,0.081,0.728
		c-0.081,0.161-0.081,0.485-0.081,0.565l-0.081,0.323c0.243,0.243,0.081,0.404,0.081,0.566c0,0.081,0.081,0.323,0.081,0.404
		c-0.162,0.161-0.162,0.242-0.162,0.323c0,0.162,0.081,0.404,0,0.404v0.728c0,0.323,0,1.051-0.161,1.617
		c0,0.081,0.08,0.081,0.08,0.162s-0.08,0.323-0.08,0.404l-0.081,0.646c-0.162,0.243-0.323,0.566-0.162,0.404v0.242
		c0,0.404-0.081,0.809-0.161,1.051c0,0.243,0,0.485-0.323,0.808c0,0.485-0.323,1.456-0.809,1.94l-0.809,1.455
		c-0.081,0.081-0.161,0.243-0.242,0.323c0.728-0.242,1.455-0.485,2.263-0.728c0,0.162,1.052-0.485,1.859-0.728v-0.081
		c1.133-0.809,1.94-0.97,2.911-1.132c0.484-0.162,0.889-0.081,1.616-0.485l1.213-0.404c1.374-0.081,2.506-0.162,4.042-0.485
		c0,0.566-3.314,2.183-3.396,2.102l0.323,0.162c-0.081,0-0.242,0.081-0.728,0.243c-0.404,0.162-1.132,0.323-1.697,0.323
		c-0.162,0.162-0.242,0.243-0.323,0.243s-0.081,0-0.162,0.081c-0.161,0.404-0.565,0.404-0.809,0.404c-0.161,0-0.08-0.081-0.242,0
		c-0.404,0.404-0.97,0.566-1.294,0.728c-0.161,0.081-0.322,0.081-0.322,0.081l-0.324,0.323c-0.08,0-0.161,0.081-0.161,0
		c-0.162,0.162-0.323,0.323-0.647,0.404h-0.403l-0.323,0.162c-0.081,0,0.08,0.081-0.162,0c-0.485,0.242-1.455,0.728-2.264,1.051
		h-0.404l-0.162,0.081h-0.08c-0.081,0.081-0.323,0.242-0.404,0.242l-0.081,0.081h-0.081v0.485c-0.242,0-0.484,0-0.728-0.081
		l-0.484,0.162v-0.243L424.254,28.294z M415.766,14.228h0.161c-0.08-0.081-0.161-0.162-0.161-0.323l0.242-0.243V12.53l0.646,0.162
		c0.485,0,0.485-0.323,0.485-0.889l1.374,0.647l0.162,1.293v1.213h-0.162c0.081,0.162,0.162,0.404-0.081,0.809
		c0,0.161,0.081,0.404,0.081,0.808c-0.161,0-0.161,0.404-0.161,0.404l-0.081,0.404c0.081,0.162,0.081,0.404,0.081,0.646
		l-0.243,0.162l-0.081,0.162l-0.08,0.889c0.484,0.647,0.646,1.94,0.646,2.506c0,0.243-0.081,0.404-0.162,0.566v0.404
		c0,0,0-0.081,0.081-0.081c0.243,0.485,0.243,0.809,0.243,1.132c-0.081,0.081-0.081,0.162-0.081,0.162v0.404
		c0,0.162,0.081,0.324,0.081,0.566l-0.162,0.243c0,0,0-0.081,0.97,0.404c0,0-1.455,0.485-1.697,0.485
		c-0.89,0-1.051-0.404-1.051-0.809c0-0.081-0.081,0.081,0-0.162c-0.162-0.081-0.162-0.162-0.162-0.323s0-0.404,0.243-0.647
		c-0.324-0.161-0.485-0.404-0.566-0.728l-0.162-0.404c0-0.161-0.161-0.242,0.081-0.485c0-0.081-0.081-0.162-0.081-0.243v-0.808
		c-0.161-0.243-0.08-0.566-0.08-0.566c-0.081-0.081-0.081-0.162-0.081-0.323h-0.161V20.21c-0.081-0.162-0.081-0.324-0.081-0.647
		c0-0.081-0.081,0,0-0.162c-0.162-0.162-0.323-0.566,0.081-1.051c0-0.081-0.081-0.162-0.162-0.324
		c-0.081-0.081-0.162-0.081-0.162-0.081l0.162-1.213c-0.081-0.162-0.081-0.323-0.162-0.646h0.162v-0.485h0.081
		c0-0.162,0-0.242,0.081-0.485h0.08v-0.081L415.766,14.228z M430.721,63.784c0.081-0.162,0.081-0.243,0.162-0.404
		c0.081-0.081,0.161-0.162,0.242-0.323c0.081-0.162,0.162-0.243,0.404-0.89c0.161-0.242,0.242-0.485,0.485-0.728v-0.081
		c0.08-0.324,0.242-0.647,0.646-0.728v-0.565c0,0,0.081-0.081,0.081-0.162c0-0.161,0.081-0.404,0.323-0.565v-0.323
		c0,0,0-0.162,0.081-0.404h-0.809c-0.162,0-0.404,0.081-0.97,0l-0.243,0.242c-0.161,0-0.323,0.081-0.404,0.162l-0.404,0.081
		l-0.97,0.485c-0.404,0.243-0.809,0.323-1.051,0.323c-0.081,0-0.081,0.081-0.162,0c-0.161,0.081-0.242,0.081-0.404,0.081v0.081
		c-0.161,0.242,0.081,0.646-0.889,0.646c-0.162,0.081-0.485,0.404-0.485,0.404c-0.161,0-0.404,0.162-0.485-0.081l-0.161,0.162
		h-0.323c-0.081,0.081-0.081,0.081-0.404,0.565c-0.243,0-0.646,0.081-0.89,0.162c0,0.242-0.161,0.323-0.809,0.485h-0.081
		c-0.242,0.162-0.565,0.243-0.808,0.324c-0.081,0-0.243-0.081-0.323-0.081h-0.324c-0.161,0.162-0.242,0.162-0.484,0.162
		c-0.081,0-0.162,0.081-0.323,0.081c-0.485,0.081-1.698,0.485-2.103,0.566l0.89-2.264l0.565-0.485V60.55
		c0.081-0.081,0.081-0.081,0.081-0.243c0.485-0.485,0.809-0.889,1.132-1.374c0.404-0.646,0.971-1.374,1.697-1.698
		c0.404-0.485,0.89-0.97,1.052-1.132l0.404-0.404l0.161,0.161c0-0.081,0.162-0.242,0.162-0.323c0-0.404,0-0.404,0.484-0.565
		c0.162-0.243,0.404-0.566,0.729-0.728c0.242-0.243,0.565-0.485,0.889-0.646c0.323-0.97,1.132-1.779,1.94-2.425l0.809-1.293h0.728
		v-0.081c0,0,0.08-0.081,0.242-0.162c0-0.323,0.081-0.566,0.162-0.728l0.08-0.404l0.646-0.728l0.081-0.081
		c0.081,0,0.081-0.081,0.162-0.161v-0.323c0.485-0.081,0.323-0.162,0.404-0.243v-0.081l0.081-0.404v-0.081l-0.729-0.081
		l-0.161,0.162l-1.374,0.081c-0.081-0.081-0.081-0.162-0.081-0.162l-0.162-0.081c-0.646,0.162-1.132,0.404-1.374,0.646
		c-0.242,0-0.242,0-0.323-0.081c-0.646,0.243-1.94,0.566-2.425,0.728l-1.213,0.162c-0.081-0.081-0.081,0-0.081-0.081h-0.081
		c-0.161,0.081-0.565,0.243-0.889,0.404c-0.566,0.243-1.213,0.485-1.779,0.566c-0.161,0-0.323-0.081-0.484-0.162
		c0,0-0.081,0.081-0.162,0.081l-0.08,0.081c-0.162,0.081-0.324,0.161-0.404,0.323l-0.647-0.081c-0.808,0.404-0.97,0.485-1.051,0.485
		c-0.242,0.081-0.565,0.081-0.809,0c-0.161,0-0.404-0.081-0.565-0.081l-0.162-0.809l0.89-0.404c0.161-0.242,0.404-0.323,0.728-0.404
		c0.162-0.161,0.323-0.242,0.485-0.323h0.403c0,0,0.081,0,0.162-0.081c0.242-0.081,0.971-0.485,0.971-0.485v0.081h0.322
		c0.324-0.243,0.971-0.404,1.294-0.566l1.698-0.646v0.323c1.131-0.566,3.395-1.051,4.122-1.213c0.89-0.323,2.183-0.646,4.608-1.132
		c0,0,0.081-0.081,0.161-0.081c0.323-0.081,0.728-0.081,1.052-0.081c0.08-0.081,0.323-0.081,0.404-0.081l1.051-0.162l0.161,1.375
		c0,0.889-0.565,1.536-0.809,1.859v0.243c0,1.617-2.506,4.608-3.638,5.659c-0.565,1.131-1.132,1.616-1.778,2.102
		c-0.404,0.404-0.323-0.081-1.859,1.698c-0.323,0.243-0.485,0.566-0.646,0.728c-0.081,0.162-1.213,0.889-1.455,1.131l-1.536,1.456
		c0.809-0.404,3.152-1.617,3.638-1.859c0.565-0.404,1.374-0.647,2.021-0.728c0.403-0.324,0.728-0.404,1.212-0.485
		c0.243-0.081,0.646-0.162,0.971-0.243c0,0,0.161,0.162,0.242,0.162h0.323c0.081,0,0.162-0.081,0.323-0.081
		c0.404,0,0.89-0.242,1.375-0.162v0.162c0.242,0,0.404,0,0.565,0.081c0.081,0,0.242,0,0.242,0.081
		c0.323,0.081,1.132,0.404,1.375,0.485l-0.485,1.293c-0.242,0.404-0.323,0.889-0.485,1.455c-0.323,1.293-0.484,2.425-1.616,3.396
		v0.081c0,0-0.324,0.404-0.485,0.566v0.404c-0.809,0.809-1.536,1.617-1.698,2.748c-1.212,1.779-2.586,3.719-3.799,5.417
		c-0.566,0.646-0.89,1.212-1.375,1.859c0.162-0.081,0.404-0.081,0.729-0.081c0.484-0.646,1.778-1.051,3.071-1.617
		c0.323-0.161,0.647-0.242,1.052-0.242v-0.162c3.395-1.616,6.305-2.344,9.054-3.071c3.233-0.809,7.194-2.021,10.186-3.638
		c0,0-0.161,2.021-1.374,2.748c-0.565,0.485-3.314,1.697-4.284,1.697c-1.294,0.89-3.477,1.456-5.174,1.537
		c-0.243,0.242-0.566,0.404-0.971,0.404c-0.081,0-0.081,0.08-0.081,0.08c-0.242,0.162-0.323,0.242-0.646,0.242
		c-0.323,0.324-0.809,0.485-1.132,0.566c-0.242,0.081-0.646,0.162-0.646,0.162c-0.565,0.323-1.455,0.727-2.183,0.97
		c-0.485,0.161-1.536,0.485-2.183,0.728c-0.162,0.081-0.243,0.162-0.323,0.242l-0.485,0.242h-0.242l-0.647,0.324v-0.081
		l-0.323,0.161c-0.161,0.162-0.242,0.081-0.484,0.081c-0.243,0.243-0.566,0.404-0.89,0.485c-0.162,0.081-0.485,0.242-0.646,0.081
		c-0.971,0.485-1.859,0.89-2.749,1.293c-0.808,0.404-2.021,0.89-2.991,1.374l-1.212-0.161l1.536-2.587
		c0.08-0.242,0.242-0.566,0.484-0.889c0.081-0.162,0.242-0.404,0.323-0.485c0.081-0.243,0.647-1.132,1.132-1.455l0.162-0.566
		c0.161-0.323,0.404-0.565,0.565-0.728c0.081-0.08,0.243-0.242,0.404-0.565c0.728-0.485,0.728-0.89,1.374-1.617
		c0.081-0.242,0.162-0.565,0.243-0.728s0.404-0.566,0.97-0.809c0,0.081,0.162-0.242,0.242-0.404v-0.404
		c0-0.08,0.485-0.565,0.324-0.484c0.161-0.404,0.242-0.566,0.646-0.971c0.081-0.08,0.323-0.323,0.404-0.484
		c0,0.08,0.323-0.566,0.404-0.809c0.161-0.243,0.323-0.485,0.484-0.485v-0.081L430.721,63.784z"/>
	<path fill="#FFFFFF" d="M457.697,28.779l-0.646,0.324l-0.728,0.323c-0.646,0.565-1.374,0.808-1.859,0.97l-1.617,0.243
		c-0.323,0.485-0.646,0.728-2.344,0.485l0.404,0.323c-0.971,0.081-1.617,0-1.698,0.081c-0.646-0.162-1.374-0.242-1.616-0.242
		l0.08-0.97l0.081-0.647c0-0.565,0-0.97,0.243-1.617l0.08-0.889l0.809-1.132l0.162-0.889l0.161-0.647
		c0.323-0.728,0.647-1.293,0.647-1.697l0.646-0.971c0.161-0.081,0.484-0.565,0.728-0.808c0.081-0.081,0.161-0.323,0.404-0.647
		c0.081-0.081,0-0.161,0.485-0.565c0.242-0.566,0.646-1.213,0.727-1.455l0.404-0.162c0-0.565-0.08-0.565,0.729-0.565
		c-0.324-0.324,0.242-0.971,0.242-0.89v0.081c0.323-0.323,0.565-0.809,0.809-1.213c0.323-0.565,0.404-0.889,1.051-1.859h0.161
		l1.052-2.425l-2.345,0.485l-2.021,0.243l-0.081,0.081c0.243-0.081-0.484,0.243-0.646,0.324c-0.404,0.242-0.565,0.242-0.728,0
		l-1.94,0.97h-0.808l-0.647,0.081c-0.646,0.242-1.455,0.404-1.616,0.242c0.161,0.081-1.051,0.243-0.971,0.081l0.081-0.162
		l0.242-0.97l1.052-1.051v0.323c0.242-0.081,0.565-0.323,1.536-0.323c0.889-0.323,1.212-0.404,1.535-0.566
		c1.132-0.728,1.536-1.051,2.103-1.293c0.728-0.323,1.536-0.566,2.263-0.728c0.243-0.081,0.566-0.081,0.809-0.162
		c0.404-0.081,1.294-0.242,1.375-0.242l0.809-0.323c1.051-0.485,1.374-0.485,1.697-0.485l1.455-0.081l-0.404,1.536
		c0.081,1.455-0.081,1.779-0.162,2.102c-0.323,1.051-0.565,1.698-0.889,2.425c-0.081,0.242-0.162,0.646-0.323,0.889l-0.404,0.889
		c-0.566,1.051-1.213,1.698-1.617,2.506l-0.161,0.404c-0.162,0.162-0.566,0.647-0.971,1.132c-0.484,0.566-0.889,1.132-1.051,1.294
		c-0.404,0.646-0.809,1.212-0.889,1.536l-0.081,0.081l-0.566,1.051c-0.728,0.889-0.808,1.212-1.212,2.183l-0.243,0.566
		c-0.404,0.97-0.646,1.536-0.889,2.102l0.161,0.404l1.375-0.242l0.727-0.243c0.971-0.485,1.859-0.889,3.396-1.778l0.566-0.162
		l2.425-0.323c0.323-0.243,0.646-0.243,0.971-0.324c0.323-0.081,0.565-0.081,1.293-0.808l1.697,0.485l-0.323,1.94
		c-0.242,1.051-0.403,1.617-0.484,1.779l-0.89,1.778l-0.323,0.728c-0.404,0.646-0.809,1.212-1.132,1.697
		c-0.323,0.485-0.728,0.89-1.051,1.293c-0.242,0.324-0.404,0.566-0.566,0.809c-0.404,0.485-0.565,0.728-0.808,0.97
		c-0.485,0.565-0.89,1.132-1.294,1.697c-0.404,0.566-0.809,1.132-1.132,1.617c-0.242,0.323-0.404,0.646-0.565,0.97
		c1.051-0.565,1.939-0.889,2.668-1.212c0.646-0.243,1.293-0.485,1.859-0.728c0.889-0.324,1.535-0.728,2.263-1.051
		c1.052-0.485,2.021-0.889,2.749-1.293c0.323-0.162,0.728-0.324,0.97-0.485l0.404-0.242c0.485-0.324,0.89-0.485,1.213-0.728
		l0.323-0.162l0.566-0.485c0,0.081,0.323,0,0.727-0.162c0.647-0.243,1.052,1.859-0.323,2.021c0.162,0.081-0.242,0.485-0.728,0.728
		c-0.889,0.566-1.859,1.132-2.264,1.051c-0.727,0.647-1.859,1.375-2.748,1.698c-0.404,0.162-0.809,0.323-1.051,0.242l-0.89,0.566
		h-0.161c-0.243,0.485-0.729,0.646-1.213,0.808c-0.89,0.566-1.374,0.809-1.859,1.051c-0.485,0.242-1.051,0.404-1.617,0.404
		l-1.939,0.728l-1.617-1.051c0.162-0.162,0.242-0.728,0.485-1.455c0.242-0.728,0.565-1.617,0.808-2.264
		c0.324-0.808,0.485-1.375,0.485-1.212l0.646-0.646l1.375-1.94c0.161-0.646,0.728-1.375,1.212-1.859
		c0.324-0.323,0.728-0.646,0.89-0.646c1.132-1.456,1.294-1.94,2.102-3.396l0.243-1.051h-0.081c-0.647,0.323-0.89,0.323-1.132,0.404
		C458.425,28.537,458.264,28.537,457.697,28.779z M457.617,68.714c0,0-1.456-1.697-0.647-1.939c-0.242-0.081-0.161-0.324,0-0.485
		c0.647-1.374,1.455-2.183,2.021-2.749l0.404-0.485c0-0.404,0.323-0.485,0.484-1.213c0.162-0.889,0.89-0.809,0.729-1.213
		c0.565-0.565,0.97-1.212,1.616-2.021l-0.081,0.323l0.485-0.485v-0.242l0.565-0.89l-0.161-0.242
		c0.323-0.323,0.485-0.485,0.646-0.566l0.243-0.647l0.323-0.565h0.081v-0.162h-0.081l0.403-1.051l0.243-0.323l0.728-1.132h0.081
		c-0.081-0.242-0.081-0.97,0.323-0.809v-0.081l0.242-0.728l0.566-0.324l1.051-1.778l0.081-0.081l0.161-0.323
		c0,0,0.323-1.051,0.323-1.132l0.243-0.404l0.809-1.859l0.403-0.484c0-0.243,0.162-0.647,0.566-1.132v-0.728l0.404-0.809h0.161
		l0.081-0.647l0.404-0.323l0.161-0.243l0.324-0.565l0.809-0.728h0.08l0.404-1.051l1.132-0.808v0.081l0.485-0.243l2.102-0.565
		l-0.646,0.728c0,0.646-0.162,0.808-0.404,0.808l-0.242,0.728l-0.324,0.162l-0.161,0.162c-0.081,0.242-0.162,0.565-0.404,0.97
		l-0.646,1.051l-0.243,0.323l-0.323,1.375c-0.323,0.162-0.889,1.132-0.97,1.698c-0.323,0.566-0.323,0.889-0.323,1.374h-0.243v0.081
		c-0.161,0.728-0.242,0.566-0.646,0.97l-0.081,0.808c-0.403,0.728-0.646,1.213-0.889,1.617l-0.566,0.728
		c-0.403,0.646-0.808,1.293-0.565,1.374l-0.566,0.404c-0.242,0.243-0.323,0.323-0.97,1.698c-0.161,0.566-0.404,1.051-0.89,1.536
		l-1.051,1.698l-0.97,1.374l-0.565,1.051l-0.485,0.647l-1.051,1.698l-0.323,0.565c-0.404,0.647-0.809,1.132-1.133,1.536
		c-0.403,0.485-0.727,0.809-1.051,1.132c-0.728,0.728-1.131,1.132-1.535,1.617C458.264,67.34,457.94,67.988,457.617,68.714z
		 M479.929,62.248c-0.565,0.081-0.646-0.081-0.809-0.243l-0.646-0.646l-0.242-0.081v-0.081h-0.404l-0.081-0.162l-1.94-1.212
		l-0.08-0.081c-0.971-0.243-0.971-0.728-1.213-0.89l-0.566-0.081L473.3,58.61l-0.565-0.89h-1.052l-1.212-1.536v-0.889l-0.404-0.89
		l0.323-0.323l0.081-0.162h0.081l0.808-0.728l-0.08,0.728l0.97,0.081c0.728,1.051,1.617,1.617,1.617,1.94l2.587,1.213h0.161
		l0.971,0.485l0.565,0.404l0.646,0.485l0.728,0.162c0.404,0.324,0.646,0.728,0.89,0.889c0.242-0.162,0.485,0.081,0.728,0.404
		l0.809,0.89v-0.162c0.161,0.162,0.646,0.323,0.97,0.485l0.162,0.242l0.484,0.323l0.162-0.161c0.404,0.242,1.132,0.646,1.94,1.051
		c0.484,0.242,0.97,0.404,1.374,0.565c0.404,0.243,0.89,0.404,1.213,0.566h0.323l0.484,0.081l1.133,0.566
		c0.565,0.323,1.374,1.051,3.071,0.323l0.89,0.646c0,0.404-0.081,0.647-0.162,0.89c-0.404,0.809-1.374,0.728-1.697,0.809
		l-0.323-0.081l-0.162,0.081l-0.565-0.162c-0.89-0.242-1.375-0.242-1.375-0.646l-0.08,0.323h-0.485
		c-2.103-0.728-2.668-1.051-3.314-1.374h-0.162l-0.565-0.323l-0.646-0.081l-0.809-0.485l-0.566-0.081l-2.991-1.375v-0.485
		L479.929,62.248z M481.304,20.291v-1.212c-0.162-0.566-0.081-0.89,0.161-1.455c-0.081-0.081-0.081-0.404-0.081-0.809l0.081-0.566
		l0.162-1.293l0.08-0.728l-0.161-0.243h0.323c0-0.485,0.081-0.485,1.051-0.485l0.404-0.485V12.53l0.081-0.728l0.646,0.404
		l0.566-0.081c0.565,0,0.484,0.324,0.484,1.212l-0.242,0.809v0.323l-0.242,0.485l-0.162,1.132h-0.081l-0.161,1.455l-0.081,0.646
		l-0.081,1.617v0.485l-0.242,1.617l-0.081,0.809v0.728l-0.162,1.455c0.243,0.485,0.404,1.213,0.485,1.859l0.081,0.646v1.051
		c0,0.728-0.081,1.212-0.081,1.375v0.889c0.242,1.051,0.081,1.698,0.242,1.779l-0.242,0.808c0,0.971-0.242,1.455-0.162,1.779
		c0-0.081,0,0.081,0.324,0.728c-0.404-0.081-1.051-0.243-1.536-0.485l-0.566-0.97l0.081-1.455l-0.081-0.162l0.081-0.243
		l-0.323-0.324l0.161-0.161l-0.242-0.97l-0.081-0.566v-0.809h0.081v-0.728l-0.081-0.162V27.89l-0.161-0.162v-1.293h0.161
		l-0.323-0.485l-0.08-0.646v-0.243l-0.243-1.375v-0.323l0.081-0.646v-0.243h-0.081V22.15l0.404-0.404l-0.081-0.162v-0.566
		L481.304,20.291z"/>
</g>
</svg>
